<?xml version="1.0" encoding="UTF-8"?>
<svg width="24px" height="24px" viewBox="0 0 24 24" version="1.1" xmlns="http://www.w3.org/2000/svg" xmlns:xlink="http://www.w3.org/1999/xlink">
    <title>账号</title>
    <g id="00登录注册" stroke="none" stroke-width="1" fill="none" fill-rule="evenodd">
        <g id="登录" transform="translate(-810.000000, -401.000000)" fill="#8392A7">
            <g id="内容框" transform="translate(240.000000, 220.000000)">
                <g id="编组-2" transform="translate(560.000000, 173.000000)">
                    <g id="账号" transform="translate(10.000000, 8.000000)">
                        <path d="M18.17216,16.9934357 C17.74528,16.2502912 17.0398933,15.5696136 16.1149867,15.0210693 C14.8836267,14.2908417 13.4272,13.8886183 12.0138667,13.8886183 C10.5978667,13.8886183 9.13685333,14.2915828 7.89984,15.0233986 C6.96981333,15.573531 6.26112,16.2556908 5.83328,17 C5.33674667,16.4052938 4.93258667,15.7457914 4.62805333,15.0312335 C4.21130667,14.0531498 4,13.0132345 4,11.9407094 C4,10.8680783 4.21130667,9.8283748 4.62805333,8.85018528 C5.03093333,7.90481736 5.60789333,7.05547909 6.34314667,6.32578084 C7.07818667,5.59608258 7.93397333,5.02329275 8.8864,4.6235045 C9.87178667,4.2097406 10.91936,4 12,4 C13.0805333,4 14.1281067,4.2097406 15.1134933,4.6235045 C16.0660267,5.02329275 16.9216,5.59608258 17.6568533,6.32578084 C18.392,7.05547909 18.96896,7.90481736 19.37184,8.85018528 C19.7885867,9.82826893 20,10.8680783 20,11.9407094 C20,13.0132345 19.7885867,14.0530439 19.37184,15.0312335 C19.0683733,15.7430386 18.66624,16.4005294 18.17216,16.9934357 M11.9970114,20 C10.953069,20 9.94097036,19.775407 8.98895255,19.3324566 C8.26406694,18.9950569 7.59761326,18.5425831 7,17.9838783 C7.24516674,17.2756338 7.84999382,16.5695433 8.69524712,16.0153735 C9.67941795,15.3700512 10.8878354,15 12.0105116,15 C13.1301991,15 14.3335669,15.3689175 15.3119667,16.0120856 C16.1525825,16.5645549 16.7549363,17.2699651 17,17.978323 C16.4008409,18.5396354 15.7324292,18.9939232 15.0051733,19.3324566 C14.0531555,19.775407 13.0410569,20 11.9970114,20 M11.9999486,3 C7.0295084,3 3,7.02942857 3,12 C3,16.9705714 7.0295084,21 11.9999486,21 C16.9704916,21 21,16.9705714 21,12 C21,7.02942857 16.9704916,3 11.9999486,3" id="Fill-1"></path>
                        <path d="M12,6 C13.6568542,6 15,7.34314575 15,9 C15,10.6568542 13.6568542,12 12,12 C10.3431458,12 9,10.6568542 9,9 C9,7.34314575 10.3431458,6 12,6 Z M12,7 C10.8954305,7 10,7.8954305 10,9 C10,10.1045695 10.8954305,11 12,11 C13.1045695,11 14,10.1045695 14,9 C14,7.8954305 13.1045695,7 12,7 Z" id="椭圆形" fill-rule="nonzero"></path>
                    </g>
                </g>
            </g>
        </g>
    </g>
</svg>