<?xml version="1.0" encoding="UTF-8"?>
<svg width="18px" height="18px" viewBox="0 0 18 18" version="1.1" xmlns="http://www.w3.org/2000/svg" xmlns:xlink="http://www.w3.org/1999/xlink">
    <title>添加</title>
    <g id="02固件管理" stroke="none" stroke-width="1" fill="none" fill-rule="evenodd">
        <g id="固件管理" transform="translate(-310.000000, -236.000000)" fill="#FFFFFF">
            <g id="内容" transform="translate(275.000000, 80.000000)">
                <g id="编组-4" transform="translate(20.000000, 147.000000)">
                    <g id="添加" transform="translate(15.000000, 9.000000)">
                        <path d="M9,9 L9,4.5 C9,4.27 8.73,4 8.5,4 C8.27,4 8,4.27 8,4.5 L8,9 L3.5,9 C3.27,9 3,9.27 3,9.5 C3,9.73 3.27,10 3.5,10 L8,10 L8,14.5 C8,14.73 8.27,15 8.5,15 C8.73,15 9,14.73 9,14.5 L9,10 L13.5,10 C13.73,10 14,9.73 14,9.5 C14,9.27 13.73,9 13.5,9 L9,9 Z" id="Fill-3"></path>
                        <path d="M8.5,1 C3.80545,1 0,4.80545 0,9.5 C0,14.19455 3.80545,18 8.5,18 C13.19455,18 17,14.19455 17,9.5 C17,4.80545 13.19455,1 8.5,1 M8.5,1.85 C12.71855,1.85 16.15,5.2823 16.15,9.5 C16.15,13.7177 12.71855,17.15 8.5,17.15 C4.28145,17.15 0.85,13.7177 0.85,9.5 C0.85,5.2823 4.28145,1.85 8.5,1.85" id="Fill-1"></path>
                    </g>
                </g>
            </g>
        </g>
    </g>
</svg>