<?xml version="1.0" encoding="UTF-8"?>
<svg width="18px" height="18px" viewBox="0 0 18 18" version="1.1" xmlns="http://www.w3.org/2000/svg" xmlns:xlink="http://www.w3.org/1999/xlink">
    <title>添加</title>
    <g id="07营销（V1.0.3)" stroke="none" stroke-width="1" fill="none" fill-rule="evenodd">
        <g id="管理文档（V1.0.3)" transform="translate(-486.000000, -217.000000)" fill="#70757D">
            <g id="内容" transform="translate(274.000000, 80.000000)">
                <g id="左侧" transform="translate(15.000000, 84.000000)">
                    <g id="一级标题" transform="translate(0.000000, 34.000000)">
                        <g id="添加" transform="translate(197.000000, 19.000000)">
                            <path d="M8.5,15 C12.0900267,15 15,12.0899733 15,8.5 C15,4.91002667 12.0900267,2 8.5,2 C4.90997333,2 2,4.91002667 2,8.5 C2,12.0899733 4.90997333,15 8.5,15 M8.5,16 C4.35797333,16 1,12.6419733 1,8.5 C1,4.35797333 4.35797333,1 8.5,1 C12.6419733,1 16,4.35797333 16,8.5 C16,12.6419733 12.6419733,16 8.5,16" id="Fill-1"></path>
                            <path d="M4.5,9 C4.22384,9 4,8.77616 4,8.5 C4,8.22384 4.22384,8 4.5,8 L12.5,8 C12.77616,8 13,8.22384 13,8.5 C13,8.77616 12.77616,9 12.5,9 L4.5,9 Z" id="Fill-3"></path>
                            <path d="M8,4.55555556 C8,4.24871111 8.22384,4 8.5,4 C8.77616,4 9,4.24871111 9,4.55555556 L9,13.4444444 C9,13.7512889 8.77616,14 8.5,14 C8.22384,14 8,13.7512889 8,13.4444444 L8,4.55555556 Z" id="Fill-5"></path>
                        </g>
                    </g>
                </g>
            </g>
        </g>
    </g>
</svg>