<?xml version="1.0" encoding="UTF-8"?>
<svg width="16px" height="16px" viewBox="0 0 16 16" version="1.1" xmlns="http://www.w3.org/2000/svg" xmlns:xlink="http://www.w3.org/1999/xlink">
    <title>下拉</title>
    <defs>
        <polygon id="path-1" points="0 0 16 0 16 16 0 16"></polygon>
    </defs>
    <g id="04授权管理" stroke="none" stroke-width="1" fill="none" fill-rule="evenodd">
        <g id="权限设置" transform="translate(-748.000000, -578.000000)">
            <g id="内容" transform="translate(275.000000, 77.000000)">
                <g id="下拉" transform="translate(473.000000, 501.000000)">
                    <mask id="mask-2" fill="white">
                        <use xlink:href="#path-1"></use>
                    </mask>
                    <g id="Clip-2"></g>
                    <path d="M2.75886787,5.1082205 C2.43572637,4.7715647 1.90846361,4.76813897 1.58108219,5.10043475 C1.25370078,5.43273053 1.25036942,5.97493011 1.57351093,6.31158591 C1.57623658,6.31438878 1.57896224,6.31688022 1.58138504,6.31968309 L7.41125761,12.3147101 C7.73651907,12.6488744 8.26347898,12.6488744 8.58874044,12.3147101 L14.418613,6.31968309 C14.7462973,5.98738731 14.7496286,5.44518773 14.42679,5.10853193 C14.1036485,4.7715647 13.5766885,4.76782754 13.2490043,5.10012332 L13.2411302,5.1082205 L7.99999902,10.4978276 L2.75886787,5.1082205 Z" id="Fill-1" fill="#8392A7" mask="url(#mask-2)"></path>
                </g>
            </g>
        </g>
    </g>
</svg>