<?xml version="1.0" encoding="UTF-8"?>
<svg width="24px" height="24px" viewBox="0 0 24 24" version="1.1" xmlns="http://www.w3.org/2000/svg" xmlns:xlink="http://www.w3.org/1999/xlink">
    <title>返回</title>
    <g id="01产品开发-产品（V1.0.1+V1.0.2)" stroke="none" stroke-width="1" fill="none" fill-rule="evenodd">
        <g id="硬件开发-设备面板（待选择）" transform="translate(-295.000000, -101.000000)">
            <g id="内容" transform="translate(275.000000, 80.000000)">
                <g id="返回" transform="translate(20.000000, 21.000000)">
                    <rect id="矩形" x="0" y="0" width="24" height="24"></rect>
                    <path d="M21.0325778,11.1050987 L4.62102046,11.0747952 L10.836618,5.1912349 C11.1206141,4.94109638 11.1461803,4.51022218 10.8937784,4.22882215 C10.6414,3.94744535 10.2066102,3.92204102 9.92261414,4.17220279 L2.2308934,11.4904593 C2.08401668,11.6198285 2,11.8052592 2,11.999987 C2,12.1947148 2.08401668,12.3801455 2.2308934,12.5095147 L9.92259067,19.8277944 C10.0536351,19.9432412 10.2167898,20 10.3793346,20 C10.5690172,20 10.7578788,19.9226946 10.893755,19.7711751 C11.1461803,19.489775 11.1206141,19.0589009 10.8365946,18.8087623 L4.51658503,12.9273113 L20.9944964,12.9000572 C21.3744244,12.9000572 22,12.3798265 22,12.0033403 C22,11.6268542 21.4125293,11.1050987 21.0325778,11.1050987 Z" id="路径" fill="#3B7CFF" fill-rule="nonzero"></path>
                </g>
            </g>
        </g>
    </g>
</svg>