<?xml version="1.0" encoding="UTF-8"?>
<svg width="20px" height="20px" viewBox="0 0 20 20" version="1.1" xmlns="http://www.w3.org/2000/svg" xmlns:xlink="http://www.w3.org/1999/xlink">
    <title>biyan</title>
    <defs>
        <polygon id="path-1" points="0.965387445 6.02759 18.9653874 6.02759 18.9653874 15.0275779 0.965387445 15.0275779"></polygon>
    </defs>
    <g id="00登录注册" stroke="none" stroke-width="1" fill="none" fill-rule="evenodd">
        <g id="登录" transform="translate(-1070.000000, -463.000000)">
            <g id="内容框" transform="translate(240.000000, 220.000000)">
                <g id="编组-2备份" transform="translate(560.000000, 233.000000)">
                    <g id="biyan" transform="translate(270.000000, 10.000000)">
                        <polygon id="矩形备份-2" points="0.0174910605 0 20 0.0470127392 19.9951818 19.826809 0 20"></polygon>
                        <mask id="mask-2" fill="white">
                            <use xlink:href="#path-1"></use>
                        </mask>
                        <g id="Clip-3"></g>
                        <path d="M18.7036953,6.2199816 C19.0176104,6.507909 19.0547357,7.01528823 18.7857834,7.35230354 C18.1645533,8.13152253 17.4505098,8.83154086 16.6589157,9.43668341 L18.2829418,11.1790979 C18.5700442,11.4987881 18.5617941,12.0065798 18.2643791,12.3147199 C17.9954269,12.6022348 17.5441481,12.6166724 17.2574582,12.3473077 C17.2463206,12.3369951 17.235183,12.32627 17.2248704,12.3147199 L15.3459173,10.3008781 C14.4953352,10.7830946 13.5845276,11.1502227 12.6370072,11.3927747 L13.5053269,13.9490585 C13.6464031,14.366512 13.446339,14.8268658 13.0577607,14.9786671 C12.66877,15.1308809 12.2397664,14.9159666 12.0982777,14.4985131 L11.1400322,11.669152 C10.3554507,11.7574277 9.5634441,11.7607278 8.77803755,11.6786396 L7.82020457,14.4985131 C7.67871589,14.9155541 7.24971231,15.1308809 6.86072157,14.9786671 C6.47255584,14.8272783 6.27207917,14.366512 6.41356785,13.9490585 L7.27570003,11.4158749 C6.32034207,11.1782729 5.4004594,10.8144449 4.54121474,10.3347034 L2.69361185,12.3143074 C2.42465961,12.6018223 1.97338084,12.6166724 1.68627845,12.3473077 C1.6685408,12.3308075 1.65162816,12.3130699 1.63595303,12.2953322 C1.3554507,11.9756421 1.3554507,11.4983756 1.63595303,11.1790979 L3.22244125,9.47710874 C2.45105983,8.89506639 1.752279,8.22227329 1.14177391,7.47275454 C0.875296694,7.13408922 0.915309527,6.62712249 1.23087466,6.34167011 C1.53818972,6.0636428 1.99483102,6.09499306 2.26584578,6.41303321 C4.19553686,8.77915293 6.9840601,10.1346392 9.91448452,10.1305142 C12.9274096,10.1305142 15.7262455,8.71768991 17.648099,6.30866984 C17.9170512,5.97124203 18.3893676,5.9320542 18.7036953,6.2199816" id="Fill-1" fill="#3B7CFF" mask="url(#mask-2)"></path>
                    </g>
                </g>
            </g>
        </g>
    </g>
</svg>