<?xml version="1.0" encoding="UTF-8"?>
<svg width="16px" height="16px" viewBox="0 0 16 16" version="1.1" xmlns="http://www.w3.org/2000/svg" xmlns:xlink="http://www.w3.org/1999/xlink">
    <title>复制</title>
    <g id="01产品开发" stroke="none" stroke-width="1" fill="none" fill-rule="evenodd">
        <g id="功能定义" transform="translate(-546.000000, -176.000000)" fill="#3B7CFF">
            <g id="内容" transform="translate(275.000000, 80.000000)">
                <g id="复制" transform="translate(271.000000, 96.000000)">
                    <path d="M15,10 C15,10.5525643 14.5529644,11 14,11 L14,11 L6,11 C5.44791658,11 5.0005606,10.5527246 5,10 L5,2 C5,1.44783658 5.44847718,1 6,1 L14,1 C14.5525639,1 15,1.44783658 15,2 L15,10 Z M14,-5.32907052e-15 L6,-5.32907052e-15 C4.89600171,-0.000560933561 4.0005606,0.894869298 4,2 L4,2 L4,10 C4,11.1053715 4.89480042,12 6,12 L14,12 C15.1062407,12 16,11.1042491 16,10 L16,2 C15.9995195,0.895991692 15.1039983,0.000561460856 14,-5.32907052e-15 L14,-5.32907052e-15 Z M11,14 C11.0020424,14.551809 10.5540027,14.9991627 10,15 L2,15 C1.44920138,14.9991627 1.00116166,14.551809 1,14 L1,6 C1.00060101,5.44714737 1.44912128,5.00035477 2,5 L3,5 L3,4 L2,4 C0.897120979,3.99887886 0.00112164501,4.89366641 -4.04121181e-13,6 L-4.04121181e-13,6 L-4.04121181e-13,14 C-0.000640398912,15.1040877 0.89303624,15.9993561 2,16 L2,16 L10,16 C11.1027993,16.0017608 11.998238,15.1084161 12,14 L12,14 L12,13 L11,13 L11,14 L11,14 Z" id="Fill-1"></path>
                </g>
            </g>
        </g>
    </g>
</svg>