<?xml version="1.0" encoding="UTF-8"?>
<svg width="48px" height="48px" viewBox="0 0 48 48" version="1.1" xmlns="http://www.w3.org/2000/svg" xmlns:xlink="http://www.w3.org/1999/xlink">
    <title>yonghu</title>
    <g id="03数据管理（V1.0.1+V1.0.2)" stroke="none" stroke-width="1" fill="none" fill-rule="evenodd">
        <g id="数据管理-概览V1.0.2" transform="translate(-690.000000, -241.000000)" stroke-width="2">
            <g id="内容" transform="translate(275.000000, 80.000000)">
                <g id="编组-2" transform="translate(20.000000, 95.000000)">
                    <g id="1备份-4" transform="translate(375.000000, 40.000000)">
                        <g id="yonghu" transform="translate(20.000000, 26.000000)">
                            <circle id="椭圆形" stroke="#343A40" cx="24" cy="24" r="20"></circle>
                            <path d="M23.5,22 C20.4667277,22 18,19.5325605 18,16.4995844 C18,13.4667271 20.4667277,11 23.5,11 C26.5333894,11 29,13.4667271 29,16.4995844 C29,19.5325605 26.5326873,22 23.5,22 L23.5,22 Z M26.0475544,35 L21.9524456,35 C18.067839,35 15,35 15,33.0428039 L15,32.6515244 C15,28.9836919 18.1192611,26 21.9524456,26 L26.0475544,26 C29.8807389,26 33,28.9836919 33,32.6515244 L33,33.0428039 C32.9992956,35 29.77719,35 26.0475544,35 L26.0475544,35 Z" id="Fill-1" stroke="#3B7CFF"></path>
                        </g>
                    </g>
                </g>
            </g>
        </g>
    </g>
</svg>