<?xml version="1.0" encoding="UTF-8"?>
<svg width="48px" height="48px" viewBox="0 0 48 48" version="1.1" xmlns="http://www.w3.org/2000/svg" xmlns:xlink="http://www.w3.org/1999/xlink">
    <title>guzhang</title>
    <g id="03数据管理（V1.0.1+V1.0.2)" stroke="none" stroke-width="1" fill="none" fill-rule="evenodd">
        <g id="数据管理-概览V1.0.2" transform="translate(-1065.000000, -241.000000)">
            <g id="内容" transform="translate(275.000000, 80.000000)">
                <g id="编组-2" transform="translate(20.000000, 95.000000)">
                    <g id="1备份-5" transform="translate(750.000000, 40.000000)">
                        <g id="guzhang" transform="translate(20.000000, 26.000000)">
                            <path d="M20.0685903,9.03636139 L3.73332922,33.2167133 C3.25477578,33.9250944 3,34.7486345 3,35.5904095 C3,38.0343096 5.09674801,40 7.66436448,40 L40.3348867,40 C41.2121601,40 42.0722008,39.7661539 42.8159014,39.3245841 C45.0056217,38.0244448 45.6620124,35.2832831 44.265922,33.2167133 L27.9306608,9.03636139 C27.5592718,8.48661094 27.0638684,8.02217276 26.4806403,7.67588299 C24.3138437,6.38935459 21.4495664,6.99216473 20.0685903,9.03636139 Z M25.3963939,9.43923093 C25.7181555,9.62899051 25.9894116,9.88158081 26.1911727,10.1782292 L42.6086276,34.3167465 C43.3538907,35.4125039 43.0052867,36.8585194 41.8138488,37.5611723 C41.3976778,37.80661 40.9130291,37.9375 40.4173642,37.9375 L7.58245436,37.9375 C6.14772083,37.9375 5,36.8687568 5,35.5694602 C5,35.1272056 5.13519706,34.6931333 5.39119098,34.3167465 L21.8086459,10.1782292 C22.5690995,9.06013737 24.1819169,8.72299067 25.3963939,9.43923093 Z" id="路径" fill="#343A40" fill-rule="nonzero"></path>
                            <rect id="矩形" fill="#3B7CFF" x="23" y="17" width="2" height="11" rx="1"></rect>
                            <circle id="椭圆形" fill="#3B7CFF" cx="24" cy="31" r="1"></circle>
                        </g>
                    </g>
                </g>
            </g>
        </g>
    </g>
</svg>