<?xml version="1.0" encoding="UTF-8"?>
<svg width="23px" height="19px" viewBox="0 0 23 19" version="1.1" xmlns="http://www.w3.org/2000/svg" xmlns:xlink="http://www.w3.org/1999/xlink">
    <title>日期</title>
    <g id="02产品开发-设备" stroke="none" stroke-width="1" fill="none" fill-rule="evenodd">
        <g id="设备管理" transform="translate(-1152.000000, -167.000000)" fill="#8392A7">
            <g id="内容" transform="translate(275.000000, 80.000000)">
                <g id="筛选栏" transform="translate(20.000000, 60.000000)">
                    <g id="日期" transform="translate(618.000000, 20.000000)">
                        <g id="日期" transform="translate(239.000000, 7.000000)">
                            <path d="M1.84000009,1.85714286 C1.1358511,1.85737756 0.920000045,2.07213114 0.920000045,2.71428571 L0.920000045,17.2857143 C0.920000045,17.9281036 1.1358511,18.1428571 1.84000009,18.1428571 L21.160001,18.1428571 C21.86415,18.1428571 22.0800011,17.9281036 22.0800011,17.2857143 L22.0800011,2.71428571 C22.0800011,2.07189643 21.86415,1.85714286 21.160001,1.85714286 L1.84000009,1.85714286 L1.84000009,1.85714286 Z M21.160001,19 L1.84000009,19 C0.644746068,19 0,18.3626347 0,17.2857143 L0,2.71428571 C0,1.63736533 0.644746068,1 1.84000009,1 L21.160001,1 C22.3552668,1 23.0000129,1.63736533 23.0000129,2.71428571 L23.0000129,17.2857143 C23.0002477,18.3626347 22.3555016,19 21.160001,19 L21.160001,19 Z" id="Fill-1"></path>
                            <path d="M18.1176471,15 L4.88235294,15 C4.21670579,15 4,14.7763351 4,15 C4,14.2236649 4.21670579,14 4.88235294,14 L18.1176471,14 C18.7832942,14 19,14.2236649 19,15 C19,14.7763351 18.7832942,15 18.1176471,15 M14.0833333,10 L4.91666667,10 C4.2239273,10 4,9.77624005 4,10 C4,9.22375995 4.2239273,9 4.91666667,9 L14.0833333,9 C14.7760727,9 15,9.22375995 15,10 C15,9.776485 14.7760727,10 14.0833333,10 M18,5 C17.2239098,5 17,4.81358978 17,4.16666667 L17,0.833333333 C17,0.186410225 17.2239098,0 18,0 C17.7760902,0 18,0.186410225 18,0.833333333 L18,5 C17.999755,4.81379395 17.7760902,5 18,5 M6,5 C5.22390985,5 5,4.81358978 5,4.16666667 L5,0.833333333 C5,0.186410225 5.22390985,0 6,0 C5.77609015,0 6,0.186410225 6,0.833333333 L6,5 C6,4.81379395 5.77633513,5 6,5" id="Fill-3"></path>
                        </g>
                    </g>
                </g>
            </g>
        </g>
    </g>
</svg>