<?xml version="1.0" encoding="UTF-8"?>
<svg width="28px" height="28px" viewBox="0 0 28 28" version="1.1" xmlns="http://www.w3.org/2000/svg" xmlns:xlink="http://www.w3.org/1999/xlink">
    <title>删除</title>
    <g id="01产品开发" stroke="none" stroke-width="1" fill="none" fill-rule="evenodd">
        <g id="硬件开发-基础配置-配网信息" transform="translate(-1007.000000, -407.000000)" fill="#3B4859">
            <g id="内容" transform="translate(275.000000, 265.000000)">
                <g id="步骤一" transform="translate(20.000000, 135.000000)">
                    <g id="删除" transform="translate(712.000000, 7.000000)">
                        <path d="M19,24 L9,24 C7.94063295,24 7,23.010522 7,22 L7,11 C7,10.2994636 7.32799351,10 8,10 C8.07175208,10 8.39964774,10.2994636 8,11 L8,22 C8.39964774,22.1806272 8.72822835,22.5264081 9,23 L19,23 C19.2716738,22.5264081 19.6002544,22.1806272 20,22 L20,11 C19.6002544,9.79265525 21,9.79265525 21,11 L21,22 C21,23.010522 20.0594649,24 19,24 L19,24 Z M9,7 C9,5.46909549 9.39046665,5 10,5 L18,5 C18.6353936,5 19,5.4062602 19,7 L19,8 L9,8 L9,7 Z M20,8 L20,6 C19.8249313,4.9593 18.846103,4 18,4 L10,4 C9.1538907,4 8.17567297,4.9593 8,6 L8,8 L5,8 C3.83562048,8 3.60231168,8.9994 5,9 L23,9 C24.3975802,8.9994 24.1644495,8 23,8 L20,8 Z M11,11 C11,9.68848566 12,9.68848566 12,11 L12,18 C11.9999301,19.3115205 11,19.3115205 11,18 L11,11 Z M16,11 C16,9.68848566 17,9.68848566 17,11 L17,18 C17,19.3115205 16,19.3115205 16,18 L16,11 Z" id="Fill-1"></path>
                    </g>
                </g>
            </g>
        </g>
    </g>
</svg>