<?xml version="1.0" encoding="UTF-8"?>
<svg width="18px" height="18px" viewBox="0 0 18 18" version="1.1" xmlns="http://www.w3.org/2000/svg" xmlns:xlink="http://www.w3.org/1999/xlink">
    <title>删除</title>
    <g id="07营销（V1.0.3)" stroke="none" stroke-width="1" fill="none" fill-rule="evenodd">
        <g id="管理文档（V1.0.3)" transform="translate(-514.000000, -217.000000)" fill="#70757D">
            <g id="内容" transform="translate(274.000000, 80.000000)">
                <g id="左侧" transform="translate(15.000000, 84.000000)">
                    <g id="一级标题" transform="translate(0.000000, 34.000000)">
                        <g id="删除" transform="translate(225.000000, 19.000000)">
                            <path d="M10.4999733,14 C10.223129,14 10,13.7254912 10,13.3848981 L10,6.61510192 C10,6.27450884 10.223129,6 10.4999733,6 C10.776871,6 11,6.27450884 11,6.61510192 L11,13.3815512 C11,13.7222099 10.776871,14 10.4999733,14" id="Fill-1"></path>
                            <path d="M7.5,14 C7.22317047,14 7,13.7254912 7,13.3848981 L7,6.61510192 C7,6.27450884 7.22317047,6 7.5,6 C7.77688287,6 8,6.27450884 8,6.61510192 L8,13.3815512 C8,13.7222099 7.77688287,14 7.5,14" id="Fill-3"></path>
                            <rect id="矩形" x="2" y="4" width="14" height="1" rx="0.5"></rect>
                            <rect id="矩形备份" x="6" y="2" width="6" height="1" rx="0.5"></rect>
                            <path d="M14,6.18181818 L14,13.8181818 C14,15.0231667 13.1045695,16 12,16 L6,16 C4.8954305,16 4,15.0231667 4,13.8181818 L4,6.18181818 C4,6.12046598 4.00232129,6.05970522 4.00687328,5.99963474 L5.005,5.99963474 L5,6.11111111 L5,13.8888889 C5,14.4587065 5.38604019,14.9283413 5.88337887,14.9925247 L6,15 L12,15 C12.5128358,15 12.9355072,14.5710665 12.9932723,14.0184679 L13,13.8888889 L13,6.11111111 L12.994,5.99963474 L13.9931267,5.99963474 C13.9976787,6.05970522 14,6.12046598 14,6.18181818 Z" id="形状结合" fill-rule="nonzero"></path>
                        </g>
                    </g>
                </g>
            </g>
        </g>
    </g>
</svg>