<?xml version="1.0" encoding="UTF-8"?>
<svg width="111px" height="78px" viewBox="0 0 111 78" version="1.1" xmlns="http://www.w3.org/2000/svg" xmlns:xlink="http://www.w3.org/1999/xlink">
    <title>完成</title>
    <defs>
        <polygon id="path-1" points="-2.13624828e-15 0 111 0 111 67 -2.13624828e-15 67"></polygon>
    </defs>
    <g id="01产品开发" stroke="none" stroke-width="1" fill="none" fill-rule="evenodd">
        <g id="开发完成" transform="translate(-1323.000000, -155.000000)">
            <g id="完成" transform="translate(1323.000000, 155.000000)">
                <path d="M53.4701092,76.5772647 C53.7084615,76.5772647 53.7084615,76.8188277 53.7084615,77 L53.2913449,77 C53.2317568,76.5772647 53.6488734,76.8188277 53.4701092,76.5772647 M27.0725856,31.5257549 L27.0725856,32.4316163 C26.655469,32.4316163 26.1787643,32.6731794 26,32.6731794 C26.1787643,32.4316163 26.1787643,31.5257549 27.0725856,31.5257549 M76.5306997,18.4209591 C76.5306997,18.4209591 76.5306997,18.6021314 76.5306997,18.4209591 C76.5306997,18.8436945 77.1861687,18.4209591 76.9478163,18.8436945 C76.5306997,18.6021314 76.709464,19.0852575 76.2923474,19.0852575 C76.1135831,18.6021314 76.5306997,18.8436945 76.5306997,18.4209591 M75.4581141,18.1793961 L76.1135831,18.1793961 C76.1135831,18.4209591 76.1135831,18.4209591 76.3519355,18.4209591 C76.1135831,18.6625222 76.1135831,18.8436945 75.6964665,18.8436945 C75.6964665,18.6021314 75.4581141,18.6021314 75.4581141,18.1793961 M72.8362382,15.7033748 C73.2533548,15.9449378 73.4917072,15.9449378 74.1471762,15.9449378 C74.1471762,16.1865009 73.7300595,16.1865009 73.9088238,16.6092362 C73.6704714,16.1865009 72.8362382,16.1865009 72.5978858,15.9449378 C72.3595335,15.7033748 73.0150025,15.9449378 72.8362382,15.7033748 M56.3303375,9 L56.9858064,9 L56.9858064,9.42273535 C57.4029231,9.42273535 57.6412754,9.18117229 57.8796278,9 C59.1905657,9.42273535 59.4289181,9.42273535 60.9782084,9.42273535 L60.9782084,10.3285968 C61.395325,10.3285968 60.9782084,9.6642984 61.6336774,9.90586146 C61.6336774,10.1474245 61.2165608,10.1474245 61.395325,10.5701599 C60.5015037,10.8117229 60.5015037,10.1474245 59.6076824,10.3285968 C59.6076824,9.90586146 60.024799,10.0870337 60.2631513,10.0870337 L60.2631513,9.84547069 C59.8460347,9.60390764 59.1905657,9.84547069 59.36933,10.268206 C59.1309776,9.84547069 58.058392,10.268206 57.8200397,9.84547069 C57.5816873,10.268206 57.1645707,9.84547069 56.7474541,9.84547069 C56.3303375,9.24156306 56.5091017,9.48312611 56.3303375,9" id="Fill-1" fill="#3B7CFF"></path>
                <path d="M20.5562436,21.0537084 L21.2146543,21.0537084 L21.2146543,20.6240409 C20.7956656,20.6240409 21.2146543,21.0537084 20.5562436,21.0537084 C20.7956656,20.6240409 20.7956656,20.6240409 20.5562436,20.6240409 L20.5562436,21.0537084 Z M26.122807,14.7314578 L25.4643963,14.7314578 C25.4045408,15.4066496 26.122807,14.9769821 26.122807,14.7314578 L26.122807,14.7314578 Z M70.5356037,4.54219949 C70.5356037,4.78772379 70.7750258,5.4629156 70.7750258,5.2173913 C70.7750258,4.97186701 70.9545924,4.29667519 70.5356037,4.54219949 C70.7750258,4.54219949 70.7750258,4.54219949 70.5356037,4.54219949 L70.5356037,4.54219949 Z M70.2967802,4.54219949 C70.5356037,4.54219949 70.7151703,4.29667519 70.5356037,4.11253197 C70.2967802,4.0511509 70.0567595,4.54219949 70.2967802,4.54219949 L70.2967802,4.54219949 Z M68.9793602,4.29667519 L69.3989474,4.29667519 C69.3989474,4.0511509 69.3989474,3.86700767 69.1589267,3.86700767 C69.3989474,4.0511509 68.7399381,3.86700767 68.9793602,4.29667519 L68.9793602,4.29667519 Z M67.0047265,3.62148338 L67.2435501,3.62148338 C67.2435501,3.37595908 67.0047265,3.37595908 66.8245614,3.19181586 C66.5252838,3.37595908 67.0047265,3.19181586 67.0047265,3.62148338 L67.0047265,3.62148338 Z M65.6873065,3.19181586 C65.6873065,2.76214834 65.6873065,2.51662404 65.2683179,2.51662404 C65.2090609,2.94629156 65.2090609,3.19181586 65.6873065,3.19181586 L65.6873065,3.19181586 Z M62.5748194,2.70076726 L62.5748194,2.02557545 C62.3353973,2.02557545 62.3353973,1.78005115 62.1558308,2.02557545 C62.3353973,2.27109974 62.3353973,2.51662404 62.5748194,2.70076726 L62.5748194,2.70076726 Z M50.4241486,1.84143223 C50.6635707,1.84143223 50.8431373,1.59590793 50.8431373,1.16624041 C50.6037152,1.35038363 50.6037152,1.59590793 50.4241486,1.84143223 L50.4241486,1.84143223 Z M52.8183695,1.10485934 C53.2373581,1.35038363 53.2373581,0.675191816 52.8183695,0.675191816 C53.0577915,0.920716113 52.8183695,1.10485934 52.8183695,1.10485934 L52.8183695,1.10485934 Z M33.6047472,7.48849105 C33.3653251,7.48849105 33.1857585,7.73401535 33.1857585,8.16368286 C33.6047472,8.40920716 33.6047472,7.91815857 33.6047472,7.48849105 L33.6047472,7.48849105 Z M19,23.3248082 C19.2394221,23.3248082 19.2394221,23.5703325 19.2394221,23.5703325 C19.4788442,23.3248082 19.4788442,22.6496164 19.2394221,22.6496164 C19.6584107,21.9744246 19.8978328,21.0537084 20.3168215,20.1329923 L21.2146543,20.1329923 C21.2146543,20.5626598 21.4540764,20.5626598 21.2146543,21.0537084 C21.6336429,21.0537084 21.2146543,20.1329923 21.2146543,20.1329923 C21.2146543,19.7033248 21.4540764,19.4578005 21.4540764,19.028133 C21.0350877,18.7826087 21.4540764,19.7033248 21.0350877,19.4578005 C21.2745098,19.2122762 21.2745098,18.7826087 21.2745098,18.5370844 L21.6934985,18.2915601 C21.9329205,17.8618926 21.9329205,18.0460358 22.1124871,17.6163683 C22.3519092,17.370844 22.3519092,16.9411765 22.3519092,16.6956522 C22.5913313,16.4501279 22.7708978,16.4501279 23.0103199,16.4501279 L23.0103199,16.0818414 C23.0103199,15.8363171 23.4293086,15.8363171 23.6687307,15.6521739 C24.0877193,15.2225064 23.4293086,15.4066496 23.9081527,15.4066496 C24.1475748,15.4066496 23.9081527,14.7314578 23.9081527,14.9769821 C24.3271414,14.9769821 24.1475748,15.2225064 24.1475748,15.4066496 C24.5665635,15.6521739 24.1475748,14.9769821 24.5665635,15.1611253 C24.5665635,14.915601 24.1475748,14.915601 24.1475748,14.7314578 C28.0980392,10.1892583 32.3477812,6.32225064 38.2734778,3.86700767 L38.6924665,3.43734015 C39.1114551,3.19181586 38.6924665,4.11253197 38.9318885,4.11253197 C39.1713106,4.11253197 38.9318885,3.68286445 38.9318885,3.43734015 C39.1713106,3.43734015 39.8297214,2.76214834 40.0092879,3.43734015 C40.24871,3.43734015 40.0092879,3.19181586 40.0092879,3.00767263 C40.9071207,2.57800512 41.8049536,2.57800512 42.6429309,2.08695652 C43.0619195,1.84143223 42.6429309,2.51662404 43.0619195,2.33248082 C43.9597523,1.9028133 45.5159959,1.22762148 46.3539732,1.41176471 C46.3539732,1.16624041 46.7729618,1.16624041 46.5933953,0.982097187 C48.1496388,1.22762148 49.0474716,0.552429668 50.7832817,0.73657289 C51.0227038,0.982097187 50.5438596,0.982097187 50.5438596,1.16624041 C50.5438596,1.41176471 50.9628483,1.16624041 51.2022704,1.16624041 C50.7832817,0.73657289 51.4416925,0.920716113 51.4416925,0.491048593 C52.7585139,0.245524297 54.3147575,-0.184143223 54.9731682,0.245524297 C55.6321775,0 55.6321775,0.245524297 56.2899897,0 C56.5300103,0.920716113 57.3673891,0 58.504644,0.245524297 L58.504644,0.920716113 C58.9242312,0.920716113 59.1630547,0.675191816 59.1630547,0.491048593 C59.5820433,0.491048593 60.2404541,0.491048593 60.0608875,0.920716113 C60.3003096,0.920716113 60.3003096,0.675191816 60.3003096,0.491048593 C62.0959752,0.73657289 63.5923633,1.16624041 65.1486068,1.59590793 C65.3880289,2.02557545 64.9097833,1.84143223 64.9097833,2.02557545 C64.4901961,2.27109974 64.9097833,1.59590793 64.6697626,1.78005115 C64.6697626,2.20971867 64.250774,2.02557545 64.250774,2.45524297 C64.6697626,2.20971867 65.1486068,2.20971867 65.5675955,2.02557545 C65.5675955,1.78005115 65.5675955,1.78005115 65.3281734,1.78005115 C66.4061713,1.35038363 67.123839,2.45524297 68.2018369,2.45524297 L68.2018369,2.88491049 C68.620227,3.13043478 68.4406605,2.63938619 68.620227,2.63938619 C71.0743034,3.74424552 73.2895562,5.15601023 75.6837771,6.50639386 C75.6837771,6.75191816 75.9226006,6.75191816 75.6837771,6.93606138 C76.3415893,6.69053708 76.3415893,7.6112532 77,7.3657289 C77,8.04092072 77,8.96163683 76.7605779,9.63682864 C76.5211558,9.63682864 76.1021672,9.63682864 76.1021672,9.39130435 C76.3415893,9.39130435 76.3415893,9.63682864 76.3415893,9.63682864 C76.5816099,9.63682864 76.3415893,9.20716113 76.5816099,9.20716113 C76.3415893,8.96163683 75.9226006,9.20716113 75.9226006,9.45268542 C73.0495356,7.6112532 70.4158927,5.58567775 66.8844169,4.48081841 L66.8844169,4.0511509 C66.6449948,4.0511509 66.6449948,4.48081841 66.4654283,4.29667519 C66.4654283,4.0511509 66.4654283,4.0511509 66.2260062,4.0511509 C66.2260062,3.8056266 66.4654283,3.8056266 66.4654283,3.8056266 C66.4654283,3.5601023 66.2260062,3.8056266 66.2260062,3.8056266 C65.9865841,3.8056266 66.2260062,4.48081841 65.9865841,4.23529412 C65.9865841,3.5601023 65.9865841,3.31457801 66.4061713,3.13043478 C66.1661507,2.88491049 66.1661507,2.88491049 66.1661507,2.70076726 L65.8668731,2.70076726 C66.2858617,3.13043478 65.627451,3.37595908 66.1068937,3.62148338 C65.8668731,3.62148338 65.8668731,3.86700767 65.8668731,3.86700767 C65.2090609,3.62148338 64.3112281,3.19181586 63.4133953,3.19181586 C63.4133953,2.94629156 63.4133953,2.76214834 63.1733746,2.76214834 C62.9339525,2.33248082 63.5923633,2.76214834 63.4133953,2.33248082 C62.993808,2.08695652 63.4133953,2.76214834 62.993808,2.57800512 C62.993808,2.82352941 63.4133953,2.82352941 63.2332301,3.25319693 C62.993808,3.00767263 62.5748194,3.00767263 62.1558308,3.00767263 L62.1558308,2.33248082 C61.9170072,3.25319693 60.5995872,2.76214834 60.1805986,2.33248082 C59.7616099,2.76214834 58.8637771,2.08695652 57.9659443,2.33248082 C57.9659443,2.08695652 57.5469556,2.08695652 57.7271207,1.9028133 C57.3075335,1.657289 57.3075335,1.9028133 57.3075335,2.1483376 C53.7760578,1.9028133 50.244582,2.57800512 47.6109391,2.39386189 C47.1919505,2.63938619 47.8503612,2.63938619 47.6109391,2.82352941 C43.4210526,3.25319693 40.5479876,5.09462916 37.1960784,6.19948849 C35.879257,7.54987212 33.6646027,8.04092072 32.7667699,9.39130435 C32.1083591,9.39130435 32.3477812,10.0664962 31.6893705,9.82097187 C31.4499484,10.0664962 31.2703818,10.2506394 31.0309598,10.741688 C30.1331269,10.9872123 29.7141383,11.8465473 28.8163055,12.5831202 C28.1578947,13.0127877 27.499484,13.6879795 27.2600619,14.4245524 L26.8410733,14.4245524 C26.6016512,15.5294118 25.5242518,15.3452685 25.5242518,16.4501279 L25.1052632,16.4501279 L25.1052632,17.1253197 C23.3095975,18.7212276 22.2321981,20.9923274 21.1547988,23.2634271 C20.9153767,23.2634271 20.9153767,23.0179028 20.9153767,23.0179028 C20.6759546,23.0179028 20.9153767,23.6930946 20.6759546,23.4475703 C20.4365325,23.8772379 21.0949432,23.4475703 20.9153767,23.8772379 C20.496388,24.1227621 20.6759546,23.6317136 20.2569659,23.6317136 C20.2569659,23.3861893 20.6759546,23.3861893 20.496388,22.9565217 C20.9153767,23.202046 20.9153767,22.7109974 21.1547988,22.7109974 L20.9153767,22.4654731 C20.6759546,22.4654731 20.9153767,22.8951407 20.6759546,22.7109974 C20.7956656,22.2199488 20.376677,22.4654731 20.376677,22.2199488 C20.1372549,22.4654731 20.6160991,22.6496164 20.6160991,22.8951407 C20.1971104,22.8951407 20.376677,23.8158568 19.9576883,24 C19,24 19.2394221,23.5703325 19,23.3248082 L19,23.3248082 Z" id="Fill-3" fill="#3B7CFF"></path>
                <path d="M74.772093,16.8961993 C75.6790698,16.6572793 75.6790698,18.2102596 76.1023256,17.5532294 C76.1023256,17.9713395 75.8604651,18.4491796 75.6790698,18.6283696 C75.6790698,18.2102596 75.255814,18.2102596 74.772093,17.9713395 C74.772093,17.7324195 75.0139535,17.5532294 75.4372093,17.5532294 C75.1953488,17.3740394 74.9534884,17.3740394 74.772093,16.8961993 C74.5302326,17.1351194 74.772093,17.5532294 74.772093,17.5532294 L74.3488372,17.5532294 L74.5906977,17.5532294 C74.5302326,17.3740394 74.772093,17.1351194 74.772093,16.8961993 L74.772093,16.8961993 Z M35.227907,16.7170093 C35.4697674,16.7170093 35.6511628,16.7170093 35.6511628,16.4780893 L36.0744186,16.4780893 C36.3162791,16.4780893 36.0744186,16.0599792 36.0744186,16.0599792 C36.4976744,15.8210591 36.0744186,16.4780893 36.4976744,16.2988992 C36.7395349,15.8807892 36.0744186,16.2988992 36.255814,15.8807892 C36.6790698,15.8807892 36.4976744,15.4626791 36.9209302,15.4626791 C36.9209302,16.1197092 36.4976744,16.3586292 36.6790698,17.0156594 C36.0139535,17.2545794 35.772093,17.9116095 34.8651163,18.0907995 C34.8651163,18.5089096 34.4418605,18.7478297 34.2,18.9867497 L33.9581395,18.9867497 C33.9581395,18.5686396 34.3813953,18.7478297 34.3813953,18.3297196 C34.3813953,18.0907995 34.1395349,18.3297196 34.1395349,18.3297196 C33.8976744,18.7478297 33.7162791,19.2256697 34.1395349,19.6437798 C32.144186,21.1967601 31.2372093,23.5859605 29.2418605,25.3778608 C29.2418605,24.9597507 29.2418605,24.9597507 29.4837209,24.9597507 C29.4837209,24.7208307 29.0604651,24.9597507 28.8186047,24.9597507 C29.0604651,24.5416407 29.4837209,24.5416407 29.4837209,23.8846106 C29.7255814,23.6456905 29.4837209,24.3027206 29.4837209,24.3027206 C29.7255814,24.0638006 29.9069767,23.8846106 30.3906977,23.8846106 L30.3906977,23.6456905 C30.3906977,23.4067705 30.1488372,23.6456905 29.9674419,23.6456905 C29.7255814,23.2275804 30.2093023,23.2275804 30.2093023,22.7497404 C30.8744186,22.7497404 30.6325581,21.8537902 31.2976744,22.0927102 L31.2976744,21.4356801 C31.7209302,21.1967601 31.2976744,21.8537902 31.7209302,21.6746002 C31.055814,21.0175701 32.3860465,20.77865 32.144186,20.1216199 C32.5674419,20.3605399 33.0511628,18.8075597 33.2325581,19.7035098 C33.4744186,19.7035098 33.2325581,19.2853998 33.2325581,19.0464797 C33.655814,18.8075597 33.655814,18.3894496 34.3209302,18.3894496 C34.5627907,18.6283696 34.3209302,19.0464797 34.3209302,19.2853998 C34.9860465,18.0310695 35.4697674,17.5532294 35.227907,16.7170093 L35.227907,16.7170093 Z M69.3906977,13.1929387 C70.2976744,12.9540186 70.055814,13.6110488 70.7209302,13.6110488 C70.7209302,13.8499688 70.2976744,14.2680789 70.7209302,14.5069989 C70.7209302,14.2680789 70.9627907,14.0888888 70.9627907,13.8499688 C71.3860465,13.6110488 70.9627907,14.2680789 71.3860465,14.0888888 C71.144186,14.5069989 71.144186,14.3278089 71.3860465,14.745919 C70.9627907,14.745919 70.7209302,14.745919 70.7209302,14.984839 C70.2976744,14.745919 70.055814,14.5667289 69.6325581,14.3278089 C69.6325581,14.0888888 69.8744186,14.0888888 70.055814,13.9096988 C69.8139535,13.6110488 69.6325581,13.6110488 69.3906977,13.1929387 C69.1488372,13.6110488 69.8139535,13.6110488 69.6325581,14.0888888 C69.2093023,13.8499688 68.7255814,13.8499688 68.7255814,13.4318587 C68.4837209,13.4318587 68.4837209,13.8499688 68.0604651,13.6707788 C68.0604651,13.4318587 67.8186047,13.4318587 68.0604651,13.2526687 L68.4837209,13.2526687 C68.7255814,12.8345586 68.2418605,13.0137487 68.2418605,12.5956386 C68.6651163,12.5956386 68.9069767,13.0137487 69.3302326,12.8345586 L69.3906977,13.1929387 Z M64.2511628,11.4010384 C64.2511628,10.9829283 65.3395349,10.9829283 65.3395349,11.4010384 C65.3395349,11.4010384 65.3395349,11.1621183 65.5813953,11.1621183 C65.8232558,11.5802284 66.6697674,12.0580685 67.1534884,11.8191484 L67.1534884,12.2372585 L66.7302326,12.2372585 C66.7302326,12.4761786 66.972093,12.4761786 66.972093,12.4761786 C67.2139535,12.4761786 66.972093,12.0580685 67.2139535,12.2372585 C67.2139535,12.4761786 67.2139535,12.4761786 67.455814,12.4761786 C67.2139535,12.7150986 67.2139535,12.7150986 67.2139535,12.8942886 C66.5488372,12.8942886 65.8837209,12.6553686 65.8837209,12.2372585 C66.3069767,11.9983385 65.8837209,12.6553686 66.3069767,12.4761786 C66.3069767,12.2372585 65.8837209,12.0580685 65.8837209,11.8191484 C65.6418605,11.8191484 65.8837209,12.2372585 65.8837209,12.4761786 C64.9767442,12.2372585 64.0697674,12.2372585 63.6465116,11.4010384 C63.2232558,11.8191484 62.7395349,11.1621183 62.0744186,11.4010384 L62.0744186,10.3258982 C62.4976744,10.0869781 62.3162791,10.5648182 62.7395349,10.5648182 C62.4976744,10.9829283 62.7395349,10.9829283 62.7395349,11.2218483 C63.5860465,11.4010384 64.6744186,10.5050882 64.2511628,11.4010384 L64.2511628,11.4010384 Z M51.7348837,10.3258982 C52.1581395,10.3258982 52.4,10.0869781 52.6418605,9.90778811 C52.4,10.0869781 51.9767442,9.8480581 51.7348837,10.3258982 L51.7348837,10.3258982 Z M54.3953488,9.8480581 C54.6372093,10.0869781 54.6372093,10.0869781 54.6372093,10.2661682 C53.0651163,10.0272481 51.4930233,10.9231983 50.4046512,10.5050882 C49.4976744,11.1621183 47.5023256,10.9231983 46.5953488,11.5802284 C46.3534884,11.5802284 46.3534884,11.5802284 46.3534884,11.3413084 C46.1116279,11.7594184 45.4465116,11.7594184 45.0232558,12.2372585 C41.8790698,12.8942886 39.6418605,14.865379 37.2232558,16.1794392 C37.2232558,15.7613291 37.6465116,15.5224091 37.6465116,15.104299 C37.6465116,14.865379 37.4046512,15.104299 37.2232558,15.104299 C38.7953488,13.7902388 40.7906977,12.6553686 43.027907,11.8191484 C43.027907,11.5802284 43.4511628,11.5802284 43.2697674,11.4010384 C44.8418605,11.4010384 45.2651163,10.5050882 46.8372093,10.5050882 L46.8372093,10.9231983 C47.0790698,10.9231983 46.8372093,10.5050882 46.8372093,10.2661682 C47.2604651,10.6842782 47.5023256,10.0272481 47.2604651,10.6842782 C47.6837209,10.9231983 47.2604651,10.2661682 47.6837209,10.4453582 C47.9255814,10.0272481 47.2604651,10.4453582 47.4418605,10.0272481 C48.3488372,9.78832809 49.6790698,9.37021802 50.1023256,10.0272481 C50.5255814,10.0272481 50.5255814,9.60913806 50.7674419,9.60913806 C51.1906977,9.60913806 50.5255814,10.0272481 51.0093023,10.0272481 C51.4930233,10.0272481 51.2511628,9.78832809 51.2511628,9.60913806 C51.6744186,9.37021802 53.0651163,9.19102799 53.4883721,9.60913806 C53.4883721,9.37021802 54.1534884,9.37021802 54.3953488,9.37021802 L54.3953488,9.8480581 L54.6372093,9.8480581 C54.8790698,9.8480581 54.6372093,9.60913806 54.6372093,9.42994803 L55.7255814,9.42994803 C55.7255814,9.66886807 55.4837209,9.8480581 55.3023256,9.8480581 C55.3023256,10.0869781 55.7255814,10.0869781 55.7255814,10.2661682 L54.6372093,10.2661682 C55.1209302,10.0869781 54.8790698,9.8480581 54.3953488,9.8480581 L54.3953488,9.8480581 Z M27.6093023,66.531838 C27.8511628,66.531838 28.0325581,66.292918 28.0325581,66.1137279 C27.6093023,66.352648 28.0325581,65.6956179 27.6093023,65.8748079 L27.6093023,66.531838 Z M27.1860465,65.6358878 C27.1860465,65.3969678 27.427907,64.9788577 26.944186,64.9788577 C27.1860465,65.2177778 26.944186,65.6358878 27.1860465,65.6358878 L27.1860465,65.6358878 Z M27.6093023,64.9788577 C27.8511628,65.3969678 27.3674419,65.3969678 27.3674419,65.6358878 C27.7906977,65.8748079 27.7906977,65.3969678 28.0325581,65.3969678 L28.0325581,64.9788577 L27.6093023,64.9788577 Z M16.9069767,35.4722326 L17.3302326,35.4722326 C17.3302326,35.2333125 17.3302326,35.0541225 17.0883721,35.0541225 C17.1488372,35.2333125 16.6651163,34.9943925 16.9069767,35.4722326 L16.9069767,35.4722326 Z M18.7209302,29.0213915 C18.4790698,29.0213915 18.4790698,28.6032814 18.055814,28.7824714 C17.8139535,29.2603115 18.4790698,29.0213915 18.7209302,29.0213915 L18.7209302,29.0213915 Z M19.144186,28.8422014 L19.144186,28.4240913 L18.7209302,28.4240913 C18.4790698,28.6032814 18.7209302,28.8422014 19.144186,28.8422014 L19.144186,28.8422014 Z M18.7209302,27.9462513 C18.7209302,27.5281412 18.4790698,27.5281412 18.2976744,27.5281412 C18.2372093,27.7073312 18.4790698,27.9462513 18.7209302,27.9462513 L18.7209302,27.9462513 Z M19.3860465,25.4973208 C19.627907,25.4973208 19.8093023,25.2584008 19.8093023,25.0792108 C19.5674419,25.0792108 19.3860465,25.3181308 19.3860465,25.4973208 L19.3860465,25.4973208 Z M56.4511628,77.82081 C56.2093023,77.5818899 56.4511628,77.5818899 56.4511628,77.4026999 L56.2093023,77.4026999 L56.2093023,77.82081 C56.4511628,77.5818899 56.4511628,78.23892 56.4511628,77.82081 L56.4511628,77.82081 Z M54.8790698,77.5818899 C54.8790698,77.82081 54.8790698,78 55.1209302,78 C55.1209302,77.5818899 55.7860465,77.5818899 55.7860465,77.3429699 C55.3627907,77.5818899 55.7860465,76.6859398 55.3627907,76.9248598 C55.544186,77.1637799 55.3023256,77.5818899 54.8790698,77.5818899 L54.8790698,77.5818899 Z M67.1534884,75.1329595 L67.5767442,75.1329595 L67.5767442,75.3718795 C67.8186047,75.3718795 68,75.1329595 68,74.7148494 C67.5767442,74.7148494 67.5767442,74.2967394 67.0930233,74.4759294 L67.0930233,75.1329595 L67.1534884,75.1329595 Z M68.9674419,75.1329595 C69.2093023,74.7148494 68.3023256,74.4759294 68.7255814,74.7148494 C68.9674419,74.7148494 68.4837209,75.3718795 68.9674419,75.1329595 L68.9674419,75.1329595 Z M71.627907,74.2967394 L71.627907,73.8786293 L71.144186,73.8786293 C71.144186,74.2967394 71.3860465,74.4759294 71.627907,74.2967394 L71.627907,74.2967394 Z M73.8651163,72.504839 L73.8651163,72.9229491 L74.5302326,72.9229491 C74.5302326,72.6840291 74.772093,72.265919 74.5302326,72.504839 C74.2883721,72.7437591 74.0465116,72.504839 73.8651163,72.504839 L73.8651163,72.504839 Z M74.9534884,72.265919 C75.1953488,72.265919 75.3767442,72.026999 75.3767442,71.8478089 C75.1348837,71.6088889 75.1348837,71.1907788 74.9534884,71.1907788 C74.772093,71.6088889 74.9534884,71.8478089 74.9534884,72.265919 C74.9534884,72.086729 74.9534884,72.086729 74.9534884,72.265919 L74.9534884,72.265919 Z M77.1906977,70.5337487 L77.1906977,70.1156386 L76.9488372,70.1156386 C76.9488372,70.2948287 76.9488372,70.5337487 77.1906977,70.5337487 L77.1906977,70.5337487 Z M87.0465116,59.7226168 L87.4697674,59.7226168 C87.227907,59.4836968 87.227907,59.3045067 87.0465116,59.3045067 L87.0465116,59.7226168 Z M93.2744186,45.8055244 L93.6976744,45.8055244 C93.6976744,45.3874143 92.8511628,45.3874143 93.2744186,45.8055244 C93.2744186,45.5666043 93.2744186,45.5666043 93.2744186,45.8055244 L93.2744186,45.8055244 Z M83.4790698,14.2680789 L83.4790698,14.6861889 C83.9023256,14.925109 84.3860465,14.2680789 83.9023256,14.0291588 C84.144186,14.2680789 83.6604651,14.0291588 83.4790698,14.2680789 L83.4790698,14.2680789 Z M82.8139535,14.2680789 C83.2372093,14.0291588 83.2372093,14.5069989 83.4790698,14.5069989 C83.4790698,14.0888888 83.2372093,13.8499688 83.055814,13.6110488 C82.9953488,14.0291588 82.572093,14.0291588 82.8139535,14.2680789 L82.8139535,14.2680789 Z M85.7162791,60.797757 C85.9581395,61.2158671 85.2930233,60.797757 85.4744186,61.2158671 C85.8976744,61.4547871 85.7162791,61.036677 85.7162791,60.797757 L85.9581395,61.2158671 C85.9581395,61.4547871 85.5348837,61.4547871 85.7162791,61.8728972 C86.1395349,61.8728972 85.9581395,61.2158671 86.6232558,61.4547871 C86.3813953,61.036677 86.8651163,61.036677 86.8651163,60.797757 C86.5627907,60.618567 86.3813953,61.036677 85.7162791,60.797757 L85.7162791,60.797757 Z M61.5906977,76.4470197 C61.1674419,76.6859398 61.5906977,76.0289097 61.1674419,76.2080997 C61.4093023,76.8651298 60.9255814,76.8651298 60.9255814,77.2832399 L61.3488372,77.2832399 C61.3488372,76.6859398 61.5906977,76.6859398 61.5906977,76.4470197 L61.5906977,76.4470197 Z M92.1860465,44.9095742 L94,45.3276843 C93.5767442,46.4028245 93.5767442,47.9558048 93.3348837,49.269865 C93.3348837,49.508785 92.9116279,49.6879751 92.9116279,49.6879751 C92.6697674,50.3450052 92.6697674,51.0020353 92.6697674,51.6590654 C92.6697674,51.8979854 92.2465116,52.0771755 92.2465116,52.0771755 L92.2465116,52.7342056 C92.2465116,52.9731256 91.8232558,52.9731256 91.8232558,52.9731256 L91.8232558,53.6301557 C91.8232558,53.8690758 91.4,53.8690758 91.4,54.0482658 C91.1581395,54.2871859 91.4,54.7052959 91.4,54.944216 C91.4,55.183136 91.1581395,55.183136 90.9767442,55.183136 C90.7348837,55.6012461 90.5534884,56.4971962 90.3116279,57.1542264 L89.6465116,57.8112565 L89.6465116,58.2293665 C89.6465116,58.4682866 89.2232558,58.2293665 89.2232558,58.4682866 C88.9813953,58.8863967 88.9813953,59.3642367 88.8,59.7823468 C88.5581395,60.0212669 88.1348837,60.2004569 87.8930233,60.4393769 C87.6511628,60.678297 87.8930233,61.096407 87.6511628,61.3353271 C87.4093023,61.5742471 87.227907,61.5742471 86.9860465,61.7534372 C86.5627907,62.4104673 86.3209302,63.3064174 85.655814,63.5453375 L85.655814,63.1272274 C85.4139535,63.1272274 85.4139535,63.3661474 85.2325581,63.3661474 C85.2325581,63.6050675 85.4744186,63.3661474 85.655814,63.3661474 C84.5674419,65.3372378 82.5116279,66.472108 81.1813953,68.2042783 C80.7581395,68.4431983 81.1813953,67.7861682 80.9395349,67.7861682 C80.6976744,67.7861682 80.9395349,68.2042783 80.9395349,68.4431983 C80.5162791,68.6821184 80.9395349,68.0250883 80.5162791,68.2042783 C80.2744186,68.6223884 80.9395349,68.2042783 80.7581395,68.6223884 C79.427907,69.5183385 78.2790698,70.5934787 76.7674419,71.2505088 C76.5255814,71.2505088 76.5255814,71.0115888 76.5255814,70.8323987 C76.2837209,71.0713188 76.5255814,71.2505088 76.5255814,71.4894289 C73.6232558,72.8034891 71.144186,74.5953894 67.8186047,75.2524195 L67.8186047,74.8343094 C67.1534884,75.0732295 67.8186047,75.2524195 67.8186047,75.4913396 C67.3953488,75.4913396 66.7302326,75.9094496 66.4883721,75.2524195 C66.2465116,75.2524195 66.4883721,75.6705296 66.4883721,75.9094496 C65.8232558,75.9094496 65.5813953,76.1483697 65.1581395,76.3275597 C64.9162791,76.3275597 64.9162791,76.0886397 64.9162791,75.9094496 C64.4930233,75.9094496 64.4930233,76.3275597 64.0093023,76.3275597 C64.0093023,76.0886397 64.0093023,76.0886397 63.7674419,76.0886397 C63.5255814,76.5067497 62.6790698,76.5067497 61.9534884,76.7456698 C61.9534884,76.5067497 62.3767442,76.5067497 62.1953488,76.3275597 C61.5302326,76.9845898 59.9581395,76.9845898 58.8697674,77.2235099 C57.9627907,76.8053998 56.3906977,77.4624299 54.3953488,77.2235099 C54.8186047,76.8053998 54.6372093,76.3275597 54.3953488,76.1483697 C54.8186047,75.9094496 54.6372093,76.3872897 54.8186047,76.3872897 C55.0604651,76.3872897 55.0604651,75.9691796 55.0604651,75.9691796 C55.0604651,75.7302596 54.3953488,75.7302596 54.3953488,75.5510696 L55.4837209,75.5510696 C55.7255814,75.9691796 55.0604651,75.9691796 55.2418605,76.4470197 C55.4837209,76.6859398 55.4837209,75.5510696 55.6651163,76.2080997 C55.9069767,76.2080997 55.6651163,75.7899896 55.6651163,75.5510696 C55.9069767,75.5510696 56.7534884,75.7899896 56.7534884,75.3121495 C56.9953488,75.7302596 57.1767442,75.0732295 57.6604651,75.3121495 L57.6604651,76.3872897 C57.2372093,76.6262098 57.6604651,75.7302596 57.2372093,75.9691796 C56.9953488,75.9691796 57.2372093,76.2080997 57.2372093,76.3872897 C58.144186,76.8053998 57.9023256,75.7302596 58.5674419,75.7302596 C58.5674419,75.9691796 58.144186,75.9691796 58.3255814,76.1483697 C58.3255814,76.3872897 58.9906977,76.1483697 58.7488372,76.5664797 C59.172093,76.8053998 58.7488372,76.1483697 59.172093,76.3275597 C59.172093,76.7456698 59.4139535,76.7456698 59.4139535,76.7456698 C59.655814,76.7456698 59.4139535,76.5067497 59.4139535,76.3275597 C59.4139535,76.1483697 59.172093,76.3275597 58.9906977,76.3275597 C58.7488372,75.6705296 59.4139535,75.6705296 58.9906977,75.2524195 C59.4139535,75.2524195 60.5627907,74.8343094 60.9860465,75.2524195 C61.4093023,74.5953894 62.9813953,75.0134995 63.6465116,74.5953894 C64.0697674,74.3564694 63.6465116,75.0134995 64.0697674,74.8343094 C64.0697674,75.0732295 64.0697674,75.0732295 63.827907,75.0732295 C64.0697674,75.3121495 64.2511628,75.0732295 64.4930233,75.0732295 C64.4930233,74.6551194 64.0697674,74.8343094 64.2511628,74.4161994 C65.5813953,74.1772793 67.1534884,73.9980893 68.0604651,73.3410592 C68.3023256,73.3410592 68.3023256,73.5799792 68.3023256,73.5799792 C68.544186,73.1618692 69.6325581,72.6840291 69.8744186,72.9229491 C71.8697674,71.6088889 74.1069767,70.7129387 76.344186,69.3988785 L76.344186,68.9807684 C76.7674419,68.9807684 77.0093023,68.5626584 77.4325581,68.7418484 C77.4325581,68.7418484 77.1906977,68.7418484 77.1906977,68.5029283 C78.7627907,67.8458982 79.427907,66.292918 81,65.8748079 L81,65.4566978 L81.4232558,65.8748079 C81,64.9788577 82.5116279,64.3218276 82.9953488,63.4258775 C83.6604651,63.4258775 83.6604651,63.0077674 83.6604651,62.7688473 C83.9023256,62.7688473 83.9023256,63.0077674 84.0837209,62.7688473 C84.0837209,62.1118172 84.5069767,61.6937072 84.9906977,61.2158671 C84.9906977,61.6339771 85.2325581,61.6339771 85.2325581,61.6339771 C85.4744186,61.3950571 84.8093023,61.2158671 84.9906977,60.976947 C85.4139535,60.3199169 85.8976744,59.9018068 86.3209302,59.1850467 C86.3209302,59.6031568 86.3209302,59.6031568 86.0790698,59.6031568 L86.3209302,59.8420768 C86.3209302,58.9461267 86.5627907,58.2890966 86.744186,57.6320664 C87.1674419,57.8709865 87.1674419,57.3931464 87.4093023,57.3931464 C87.6511628,56.9750363 86.9860465,57.3931464 87.1674419,56.9750363 C89.9488372,54.1677258 91.2790698,49.8074351 92.1860465,44.9095742 L92.1860465,44.9095742 Z M16,35.6514226 C16.4232558,34.0984423 16.2418605,33.6803323 16.4232558,32.127352 C16.6651163,30.5743717 17.3302326,29.4992315 17.3302326,27.9462513 L17.7534884,27.9462513 C17.5116279,27.2892211 17.9953488,27.0503011 17.7534884,26.1543509 C18.1767442,26.1543509 17.9953488,26.572461 18.6604651,26.393271 C18.6604651,26.632191 18.2372093,26.632191 18.4186047,26.8113811 C18.4186047,27.0503011 18.8418605,26.8113811 19.0837209,26.8113811 C18.8418605,26.1543509 18.8418605,25.9154309 19.0837209,25.2584008 C18.6604651,25.2584008 18.8418605,25.6765109 18.6604651,25.9154309 C18.4186047,25.9154309 18.4186047,25.4973208 17.9953488,25.6765109 C17.9953488,25.4375908 18.4186047,25.4375908 18.2372093,25.0194808 L18.9023256,25.0194808 C19.144186,24.6013707 18.6604651,24.6013707 18.6604651,24.3624506 C19.0837209,24.3624506 18.9023256,23.7054205 18.9023256,23.4665005 L19.3255814,23.4665005 C19.0837209,23.8846106 19.0837209,24.1235306 18.9023256,24.5416407 C19.5674419,24.9597507 19.3255814,23.6456905 19.8093023,23.6456905 L19.8093023,24.3027206 C20.2325581,24.3027206 20.4744186,24.0638006 20.4744186,23.6456905 C20.7162791,23.8846106 20.7162791,24.0638006 20.8976744,24.3027206 C20.8976744,24.9597507 20.2325581,24.9597507 20.4744186,26.0946209 C20.0511628,26.333541 20.4744186,25.4375908 20.2325581,25.4375908 C19.9906977,25.6765109 20.2325581,26.0946209 20.2325581,26.0946209 C19.144186,29.2005815 17.9953488,31.4105919 17.9953488,35.5916926 L16,35.6514226 Z M85.4744186,17.5532294 C85.0511628,17.1351194 85.2325581,17.1351194 84.8093023,16.6572793 C85.2325581,16.6572793 85.4744186,16.4183593 85.4744186,16.2391692 C85.0511628,16.4780893 85.0511628,16.4780893 84.5674419,16.4780893 L84.5674419,16.0599792 L84.9906977,16.0599792 C85.2325581,15.4029491 84.7488372,15.164029 84.7488372,14.984839 C84.5069767,14.984839 84.5069767,15.4029491 84.3255814,14.984839 C84.0837209,14.984839 84.3255814,15.223759 84.3255814,15.223759 C83.9023256,14.984839 83.9023256,15.223759 83.6604651,15.223759 C84.3255814,14.805649 82.572093,14.984839 82.9953488,14.1486189 C82.572093,13.9096988 82.9953488,14.5667289 82.572093,14.3875389 C82.572093,13.9694288 82.3302326,13.7305088 82.1488372,13.7305088 C81.9069767,13.3123987 82.572093,13.7305088 82.572093,13.4915887 C81,13.2526687 80.5767442,12.1775285 79.6697674,11.5204984 C79.427907,11.1023883 80.0930233,11.5204984 79.9116279,11.1023883 C79.4883721,10.8634683 79.9116279,11.5204984 79.4883721,11.3413084 C78.5813953,11.1023883 79.2465116,10.0272481 79.4883721,9.37021802 C79.4883721,9.13129798 79.0651163,9.37021802 79.0651163,9.13129798 C79.7302326,8.71318791 80.6372093,9.37021802 80.6372093,10.0272481 C80.2139535,9.60913806 80.2139535,10.2661682 79.972093,9.78832809 C79.5488372,10.0272481 80.2139535,10.2064382 79.972093,10.6842782 C80.2139535,10.6842782 79.972093,10.2661682 79.972093,10.2661682 C82.4511628,10.2661682 82.6325581,12.4761786 84.4465116,13.3721287 L84.4465116,13.8499688 L85.1116279,13.8499688 C85.1116279,14.2680789 85.5348837,14.5069989 85.5348837,14.745919 L85.1116279,14.745919 C85.3534884,15.164029 85.5348837,14.5069989 85.7767442,14.745919 C85.7767442,14.984839 86.0186047,14.984839 86.2,15.164029 C86.2,15.4029491 85.9581395,15.4029491 85.9581395,15.4029491 C86.2,15.8210591 86.2,15.164029 86.3813953,15.4029491 C86.6232558,15.8210591 86.8046512,16.2988992 87.2883721,16.4780893 L87.2883721,16.8961993 C87.2883721,17.1351194 87.5302326,16.8961993 87.7116279,16.8961993 L85.4744186,17.5532294 Z" id="Fill-5" fill="#3B7CFF"></path>
                <path d="M53.4170958,77.0909091 C53.4170958,77.3333333 52.7600412,77.3333333 52.9989701,78 L52.5808445,78 C52.5211123,77.3333333 53.1781668,76.9090909 53.4170958,77.0909091 L53.4170958,77.0909091 Z M47.6828012,75.3339394 C48.9969104,75.7575758 48.1009269,75.3339394 47.6828012,76 C47.9217302,76 48.1009269,76.4242424 48.5787848,76.2430303 C48.3398558,76.4848485 48.3398558,76.6666667 48.3398558,77.1521212 C47.6828012,77.3939394 47.6828012,76.7272727 47.0257467,76.9090909 C46.7868177,76.9090909 47.4438723,76.6666667 47.4438723,76.6666667 C47.4438723,76.1818182 47.6828012,76 47.6828012,75.3339394 L47.6828012,75.3339394 Z M44.9948507,76.4242424 C44.9948507,76 45.2337796,75.3339394 44.7559217,75.0909091 C44.576725,75.5151515 44.3377961,76.1818182 44.9948507,76.4242424 L44.9948507,76.4242424 Z M43.5015448,74.8484848 C43.5015448,75.0909091 43.7404737,75.0909091 43.7404737,75.2727273 C43.7404737,75.0309091 43.7404737,75.0309091 43.9794027,75.0309091 C43.9196704,74.6666667 43.6807415,74.6666667 43.5015448,74.8484848 C43.5015448,74.6666667 43.5015448,74.8484848 43.5015448,74.8484848 L43.5015448,74.8484848 Z M38.4243048,72.8484848 L38.4243048,73.2727273 C38.8424305,73.2727273 38.6632338,72.8484848 38.8424305,72.8484848 C39.0216272,72.8484848 39.2605561,72.8484848 39.0813594,72.6066667 C38.6035015,72.4242424 38.8424305,72.8484848 38.4243048,72.8484848 L38.4243048,72.8484848 Z M36.2142122,71.9393939 L36.6323378,71.9393939 C36.6323378,71.6975758 36.3934089,71.5151515 36.2142122,71.5151515 L36.2142122,71.9393939 Z M31.1369722,67.2727273 C30.7188465,67.5151515 30.7188465,67.9393939 31.1369722,68.1818182 L30.7188465,68.1818182 L30.7188465,68.6060606 C30.7188465,68.8484848 31.3759011,68.6060606 31.1369722,69.030303 C31.5550978,69.030303 31.3759011,68.3642424 31.5550978,67.9393939 C31.5550978,67.6969697 31.3161689,67.9393939 31.1369722,67.9393939 C31.3759011,67.9393939 31.3759011,67.5151515 31.5550978,67.6969697 C31.3161689,68.1212121 31.7940268,67.9393939 31.7940268,68.1212121 C32.0329557,68.1212121 32.0329557,67.6969697 32.2121524,67.8787879 C31.9732235,68.5454545 32.869207,68.1212121 32.6302781,68.7878788 C33.5262616,69.030303 34.8403708,69.4545455 34.6014418,70.3636364 C34.8403708,70.6060606 35.0195675,70.6060606 35.2584964,70.7884848 L35.676622,70.3636364 C36.3336766,70.6060606 36.7518023,71.2727273 37.4685891,71.4545455 C37.707518,71.8787879 37.2296601,71.8787879 37.2296601,72.1212121 C37.4685891,72.1212121 37.6477858,71.8787879 37.6477858,71.6975758 C38.5437693,71.6975758 38.961895,72.1212121 39.4397528,72.6066667 C39.6786818,73.030303 39.2008239,72.8484848 39.2008239,73.030303 C39.2008239,73.2727273 39.4397528,73.030303 39.4397528,73.030303 C39.6786818,73.030303 39.4397528,72.6066667 39.4397528,72.6066667 C39.6786818,73.030303 39.8578785,72.8484848 40.3357364,72.8484848 C40.0968074,73.2727273 40.753862,72.8484848 40.753862,73.2727273 L40.753862,73.030303 C42.3069001,73.6969697 43.8599382,74.3636364 45.592173,74.6060606 C45.592173,74.8484848 45.831102,74.8484848 45.592173,75.0309091 C45.831102,75.0309091 46.0102987,74.7878788 46.4881565,74.7878788 L46.4881565,75.4545455 L46.0700309,75.4545455 C46.0700309,75.6969697 46.4881565,75.6969697 46.3089598,76.1212121 C45.8908342,76.3636364 46.3089598,75.6969697 46.0700309,75.6969697 C46.0700309,75.94 45.6519053,76.1212121 45.831102,76.6060606 C44.9351184,76.3636364 44.2780639,76.1818182 43.3820803,75.94 C43.3820803,75.6969697 43.1431514,75.6969697 43.3820803,75.2727273 L42.7250257,75.2727273 C42.7250257,74.8484848 42.4860968,74.6060606 42.4860968,74.6060606 C42.4860968,74.8484848 42.2471679,75.0309091 42.2471679,75.2727273 C41.5901133,75.2727273 41.5901133,74.8484848 40.6941298,75.0309091 C40.6941298,74.7878788 40.4552008,74.6060606 40.4552008,74.1218182 C40.6941298,74.1218182 40.6941298,74.3636364 40.6941298,74.3636364 C41.1122554,73.9393939 40.4552008,73.4545455 40.2760041,73.2727273 C40.2760041,73.6969697 40.2760041,73.9393939 40.0370752,74.1818182 C39.6189495,74.4248485 40.0370752,73.7575758 39.6189495,73.9393939 C39.6189495,74.3636364 40.2760041,74.3636364 40.0370752,74.8484848 C39.1410917,74.4248485 38.4840371,74.1818182 37.5880536,73.9393939 C37.5880536,73.5157576 37.5880536,73.2727273 37.3491246,73.030303 C36.930999,73.2727273 37.5880536,73.4545455 37.3491246,73.6969697 C36.930999,73.2727273 36.69207,72.7878788 35.7960865,73.030303 C35.7960865,72.6066667 35.7960865,72.3636364 36.2142122,72.3636364 C36.2142122,72.1212121 35.9752832,72.1212121 35.9752832,71.9393939 C35.5571576,72.6066667 34.900103,71.2727273 34.661174,72.1818182 C33.3470649,71.5151515 32.2121524,70.6060606 31.1369722,69.9393939 L31.1369722,69.2733333 C30.8980433,69.2733333 30.8980433,69.5151515 30.8980433,69.6969697 C30.4799176,69.4545455 30.4799176,69.030303 29.822863,69.030303 C29.822863,68.6060606 29.822863,68.1212121 30.061792,67.9393939 C30.3007209,67.9393939 30.3007209,68.1818182 30.3007209,68.1818182 C30.7188465,67.9393939 30.061792,67.9393939 30.3007209,67.7581818 C30.8980433,67.4551515 31.1369722,66.7878788 31.1369722,67.2727273 C31.1369722,67.4551515 31.1369722,67.4551515 31.1369722,67.2727273 L31.1369722,67.2727273 Z M53.1781668,68.6060606 L53.1781668,68.1818182 L52.7600412,68.1818182 C52.7600412,68.6060606 52.9392379,68.8484848 53.1781668,68.6060606 L53.1781668,68.6060606 Z M71.277034,63.6969697 C71.277034,63.4545455 71.5159629,63.030303 71.038105,63.030303 C71.277034,63.4545455 70.7991761,63.8787879 71.277034,63.6969697 L71.277034,63.6969697 Z M74.1441813,61.4545455 C73.9052523,61.4545455 73.9052523,61.6975758 73.4871267,61.4545455 C73.4871267,61.6975758 73.9052523,61.6975758 74.1441813,61.8787879 L74.1441813,61.4545455 Z M74.8012358,60.7884848 C74.5623069,60.7884848 74.5623069,61.2121212 74.3831102,61.4545455 L74.8012358,61.4545455 L74.8012358,60.7884848 Z M79.2214212,55.1515152 C79.6395469,55.5757576 79.2214212,56.2430303 79.2214212,56.7272727 L78.8032956,56.7272727 C78.8032956,57.6363636 77.907312,57.6363636 77.907312,58.5454545 C76.8321318,59.2121212 76.3542739,60.3636364 75.2790937,60.7884848 L75.2790937,61.2121212 C74.3831102,60.969697 74.3831102,62.3036364 73.7260556,61.6363636 C73.30793,61.8787879 73.9649846,62.0606061 73.7260556,62.3036364 C72.8300721,62.0606061 73.069001,62.7272727 72.6508754,62.7272727 C72.6508754,62.4848485 72.8898043,62.3036364 72.6508754,62.3036364 C72.6508754,62.7272727 72.4119464,62.969697 71.7548919,62.7272727 C71.5159629,63.1515152 72.1730175,62.7272727 71.9938208,62.969697 C71.0978373,64.0606061 69.5447992,64.5454545 68.4696189,65.4545455 C68.23069,65.4545455 68.23069,65.2121212 68.23069,65.2121212 C67.9917611,65.8787879 66.9165808,66.1212121 66.2595263,66.1212121 C64.9454171,67.2121212 62.7353244,67.4551515 60.9433574,68.1212121 C60.7044284,68.1212121 60.7044284,67.8787879 60.7044284,67.8787879 C60.2863028,68.3030303 59.1513903,68.1212121 58.7332647,68.5454545 L58.7332647,68.1212121 C58.4943357,68.1212121 58.7332647,68.3642424 58.7332647,68.5454545 C56.9412976,68.5454545 55.8661174,68.7878788 54.5520082,68.7878788 C54.5520082,68.3642424 54.5520082,68.3642424 54.9701339,68.3642424 L54.9701339,68.1212121 C54.9701339,67.8787879 54.5520082,68.1212121 54.5520082,67.8787879 C54.3130793,68.1212121 54.1338826,68.1212121 53.8949537,68.3030303 C54.1338826,68.7272727 54.3130793,68.3030303 54.5520082,68.3030303 C54.5520082,68.5454545 54.1338826,68.5454545 54.3130793,68.970303 C53.6560247,68.7272727 52.9989701,68.5454545 52.3419156,68.7272727 L52.3419156,68.3030303 C51.9237899,68.3030303 52.1029866,68.7272727 51.684861,68.7272727 C51.2667353,68.7272727 51.445932,68.3030303 51.2667353,68.3030303 C49.0566426,68.7272727 46.607621,67.3939394 44.6364573,66.969697 C44.8753862,66.5460606 44.2183316,66.969697 44.3975283,66.5460606 C43.9794027,66.3030303 44.3975283,66.969697 43.9794027,66.7878788 C43.7404737,66.3636364 43.3223481,66.3636364 42.9042225,66.3636364 C42.9042225,65.94 42.9042225,65.6969697 43.1431514,65.6969697 C42.9042225,65.4545455 42.4860968,65.6969697 42.4860968,65.94 C42.2471679,65.94 42.0679712,65.6969697 41.5901133,65.6969697 C41.5901133,65.4545455 41.3511843,65.4545455 41.5901133,65.2727273 C40.2760041,65.2727273 39.6189495,64.6060606 39.1410917,63.9393939 C39.1410917,63.9393939 39.1410917,64.1818182 38.9021627,64.1818182 C38.9021627,63.9393939 38.6632338,63.7575758 38.6632338,63.2727273 L38.2451081,63.2727273 C38.0061792,63.6969697 38.6632338,63.2727273 38.4840371,63.6969697 C38.0659114,63.4545455 37.5880536,63.2727273 37.4088568,62.7878788 L37.8269825,62.7878788 C37.8269825,62.5454545 37.5880536,62.3636364 37.8269825,61.8787879 C37.5880536,62.1212121 37.4088568,62.3036364 37.4088568,62.7878788 C37.1699279,62.7878788 37.1699279,62.3636364 36.7518023,62.5454545 C36.5128733,62.1212121 37.1699279,62.1212121 36.9907312,61.6363636 C36.5726056,61.6363636 36.7518023,62.0606061 36.5726056,62.0606061 C36.8115345,61.6363636 36.1544799,62.0606061 36.3336766,61.6363636 C36.7518023,61.6363636 36.7518023,61.3945455 36.7518023,61.2121212 C38.0659114,62.1212121 39.3800206,63.2127273 40.9330587,64.1218182 C40.9330587,64.3636364 40.5149331,64.3636364 40.6941298,64.7878788 C40.9330587,64.7878788 41.1122554,64.5454545 41.1122554,64.3636364 C42.4263646,64.6060606 42.9042225,65.6969697 44.2183316,65.94 C44.4572606,66.3636364 43.800206,65.94 43.800206,66.1818182 C44.2183316,66.4242424 44.6961895,65.94 45.1143151,66.1818182 C45.1143151,66.6060606 45.1143151,66.6060606 44.8753862,66.6060606 C44.8753862,66.8490909 45.1143151,66.6060606 45.1143151,66.6060606 C45.3532441,66.6060606 45.1143151,66.1818182 45.3532441,66.1818182 C46.0102987,66.4242424 46.4284243,66.6060606 47.1452111,66.6060606 C47.1452111,66.8490909 46.9062822,66.8490909 46.9062822,66.8490909 C46.9062822,67.0909091 47.1452111,66.8490909 47.1452111,66.8490909 C47.3841401,66.8490909 47.1452111,66.6060606 47.1452111,66.4242424 C47.5633368,66.6666667 48.2203913,66.8490909 48.6982492,67.3333333 C48.9371782,67.3333333 48.6982492,67.0909091 48.6982492,66.9090909 C49.1163749,67.1521212 49.5942327,67.3333333 50.2512873,67.3333333 C50.2512873,67.5757576 50.2512873,67.7581818 50.0123584,67.7581818 C50.0123584,67.7581818 50.2512873,67.7581818 50.2512873,68 C50.2512873,67.7581818 50.2512873,67.5757576 50.669413,67.3333333 C51.0875386,67.5757576 51.5653965,67.5757576 52.2224511,67.5757576 L52.2224511,68 C53.1184346,67.5757576 54.0144181,67.7581818 55.3285273,67.7581818 C55.3285273,67.7581818 55.0895984,67.7581818 55.0895984,68 C55.3285273,68 55.3285273,67.7581818 55.3285273,67.7581818 C57.1204943,68 58.8527291,67.0909091 60.1668383,67.5151515 C60.4057673,67.2727273 60.8238929,66.8490909 61.0628218,67.2727273 C61.4809475,66.8490909 62.6158599,66.8490909 63.2729145,66.3636364 C63.6910402,66.1212121 63.2729145,66.7878788 63.5118435,66.7878788 C63.7507724,66.1212121 64.8259526,65.6969697 65.3038105,66.1212121 C65.5427394,66.1212121 65.3038105,65.8787879 65.3038105,65.6969697 C67.0957775,65.4545455 68.1709578,64.1218182 69.7239959,63.8787879 C70.1421215,63.2127273 70.7991761,62.5454545 71.6951596,62.7878788 L71.6951596,62.5454545 C74.1441813,60.969697 76.115345,58.7272727 77.8475798,56.4848485 C78.2657055,56.4848485 78.5046344,56.4848485 78.7435633,56.7272727 C78.9824923,56.4848485 78.7435633,55.6369697 78.7435633,55.1515152 C80.7147271,52.4848485 81.8496395,50.6666667 82.6858908,46.6666667 C83.3429454,46.9090909 83.3429454,46 84,46.2430303 C83.1040165,49.8181818 82.0288363,51.8181818 80.4757981,54.7278788 C80.1174047,54.969697 79.8784758,55.3939394 79.2214212,55.1515152 L79.2214212,55.1515152 Z M28.4490216,25.8181818 C28.8671473,25.8181818 29.1060762,25.5757576 29.1060762,25.3939394 C28.6879506,25.1515152 28.4490216,25.3939394 28.4490216,25.8181818 L28.4490216,25.8181818 Z M28.6879506,25.1515152 C28.6879506,24.7272727 28.4490216,24.4848485 28.4490216,24.2424242 C28.6879506,24.2424242 28.6879506,24 28.6879506,24 L29.5839341,24 C29.5839341,24.6666667 29.1658084,24.4242424 29.5839341,24.9090909 C28.6879506,25.8181818 28.6879506,27.5757576 27.791967,28.4848485 C28.030896,29.1515152 27.5530381,29.3939394 27.5530381,29.5757576 C27.1349125,29.5757576 27.3141092,29.1515152 27.1349125,29.3333333 L26.8959835,29.3333333 C26.6570546,29.5757576 26.8959835,30.2424242 26.8959835,30.4242424 C26.6570546,30.4242424 26.6570546,30.6666667 26.6570546,30.6666667 L26,30.6666667 C26.4181256,28.4242424 27.3141092,26.8484848 27.9711637,25.0909091 L28.6879506,25.1515152 Z" id="Fill-7" fill="#3B7CFF"></path>
                <g id="编组" transform="translate(0.000000, 11.000000)">
                    <mask id="mask-2" fill="white">
                        <use xlink:href="#path-1"></use>
                    </mask>
                    <g id="Clip-10"></g>
                    <path d="M3.06663221,27.8319541 C3.06663221,27.4101444 2.82611204,27.1691103 2.40520174,27.1691103 C2.40520174,27.4101444 2.40520174,27.8319541 3.06663221,27.8319541 L3.06663221,27.8319541 Z M5.9528743,27.1691103 L5.9528743,26.7473005 L5.53196399,26.7473005 C5.53196399,26.9280761 5.53196399,27.1691103 5.9528743,27.1691103 L5.9528743,27.1691103 Z M4.87053352,27.1691103 C4.87053352,26.7473005 4.63001334,26.5062664 4.44962321,26.5062664 C4.63001334,26.5062664 4.44962321,27.1691103 4.87053352,27.1691103 L4.87053352,27.1691103 Z M9.07963655,26.2652323 C9.32015673,25.8434225 8.65872625,26.0241981 8.41820608,26.0241981 C8.1776859,26.5062664 8.83911638,26.2652323 9.07963655,26.2652323 L9.07963655,26.2652323 Z M13.1083495,24.6985104 L13.1083495,24.2767007 L12.6273091,24.2767007 C12.446919,24.5177348 12.6273091,24.6985104 13.1083495,24.6985104 L13.1083495,24.6985104 Z M14.1906902,24.5177348 C14.1906902,24.758769 13.5292598,24.5177348 13.7697799,24.9395446 C14.4312104,24.9395446 14.6717306,24.6985104 14.6717306,24.2767007 L14.2508203,24.2767007 L14.1906902,24.5177348 Z M21.2860354,22.7099789 C21.7069457,22.951013 21.9474658,22.047135 21.5265555,22.2881691 C21.5265555,22.4689447 21.2860354,22.4689447 21.2860354,22.7099789 L21.2860354,22.7099789 Z M59.528743,42.2940018 L59.528743,41.631158 L59.1078327,41.631158 C58.8071825,42.0535703 59.0477026,42.2940018 59.528743,42.2940018 L59.528743,42.2940018 Z M61.0319941,41.3901238 L61.4529044,41.3901238 C61.4529044,41.1496923 61.2123842,40.9683141 61.0319941,40.9683141 L61.0319941,41.3901238 Z M97.8917107,32.5321196 L97.8917107,32.1109125 L97.4708004,32.1109125 C97.2302802,32.5321196 97.4708004,32.7134978 97.8917107,32.5321196 L97.8917107,32.5321196 Z M108.775249,25.1805787 C109.015769,24.9395446 109.196159,24.758769 109.196159,24.2767007 C109.015769,24.2767007 109.015769,24.6985104 108.775249,25.1805787 L108.775249,25.1805787 Z M108.775249,22.047135 L108.354338,22.047135 C108.594858,22.7099789 107.933428,22.4689447 107.933428,23.1317886 C108.173948,23.1317886 108.354338,23.1317886 108.354338,23.3728227 C108.775249,23.3728227 108.594858,22.951013 109.015769,23.1317886 L109.015769,22.4689447 C108.594858,22.2279106 109.015769,23.1317886 108.594858,23.1317886 C108.594858,22.8907545 108.173948,22.8907545 108.173948,22.7099789 L108.594858,22.7099789 C108.775249,22.4689447 108.775249,22.2881691 108.775249,22.047135 L108.775249,22.047135 Z M108.113818,22.047135 L108.113818,21.3842912 L107.692908,21.3842912 C107.452388,21.8061009 107.933428,21.8061009 108.113818,22.047135 L108.113818,22.047135 Z M105.227576,13.6109405 C105.648486,13.6109405 105.468096,12.9480967 105.468096,12.5262869 C105.047186,12.5262869 105.047186,12.5262869 104.806666,12.2852528 C104.806666,12.9480967 105.468096,12.7070625 105.227576,13.6109405 L105.227576,13.6109405 Z M104.566145,12.0442187 C104.806666,11.8031846 105.227576,11.8031846 105.227576,11.622409 L104.806666,11.622409 C105.047186,11.8031846 104.385755,11.5621504 104.566145,12.0442187 L104.566145,12.0442187 Z M86.1663522,4.93371189 C86.4068724,4.51190216 85.925832,4.51190216 85.7454419,4.51190216 C85.6853119,4.93371189 85.925832,4.93371189 86.1663522,4.93371189 L86.1663522,4.93371189 Z M87.9101235,4.69267776 C88.5715539,4.93371189 88.3310338,4.27086804 88.9924642,4.45164363 L88.9924642,4.02983391 C88.3911638,3.78879978 88.1506436,4.27086804 87.9101235,4.69267776 L87.9101235,4.69267776 Z M96.8093699,2.8849218 C97.0498901,2.64388767 97.4708004,2.64388767 97.4708004,2.46311207 L96.8093699,2.46311207 L96.8093699,2.8849218 Z M103.002764,4.27086804 C103.002764,3.84905831 102.762244,3.60802418 102.581854,3.60802418 C102.581854,3.54776565 102.581854,4.02983391 103.002764,4.27086804 L103.002764,4.27086804 Z M103.243285,0.896390236 C103.243285,0.474580511 103.002764,0.233546382 102.581854,0.474580511 C102.581854,0.655356107 102.822374,0.896390236 103.243285,0.896390236 L103.243285,0.896390236 Z M55.2595099,13.6109405 C55.2595099,14.0327502 55.9209404,13.8519746 55.9209404,14.0327502 C55.6804202,13.6109405 56.1614605,13.6109405 56.1614605,13.3699064 C56.1614605,13.3699064 55.9209404,13.7917161 55.2595099,13.6109405 L55.2595099,13.6109405 Z M98.372751,32.7134978 C97.7113205,32.7134978 97.7113205,32.9539293 97.0498901,32.9539293 C97.2904102,32.5321196 96.6289798,32.7134978 96.6289798,32.2910855 C96.3884596,32.2910855 96.3884596,32.9539293 96.8694999,32.7134978 C95.0655986,33.6173758 93.0813072,34.279617 90.8564956,34.5212538 C90.8564956,34.0988414 90.6159754,33.8578073 90.1950651,33.8578073 C90.1950651,34.0988414 90.6159754,34.279617 90.4355853,34.7616853 C88.4512939,35.0027194 86.2264822,36.5694413 84.2421908,35.8463389 C84.0016706,35.8463389 84.2421908,36.087373 84.0016706,36.2681486 C76.244895,38.4977143 68.2475993,40.4862459 60.4908237,42.7158115 C60.0699134,42.7158115 60.2503035,42.2940018 60.0699134,42.2940018 C59.8895232,42.2940018 60.0699134,42.7158115 59.8293932,42.9574483 C58.0254919,43.1978798 56.7026309,43.8613262 55.37977,43.6196895 C55.37977,43.1978798 56.2817206,43.6196895 56.0412005,42.9574483 C56.4621108,42.9574483 56.4621108,43.1978798 56.7026309,43.1978798 C56.9431511,43.1978798 56.7026309,42.5350359 57.1235412,42.7760701 C57.1235412,42.5350359 56.8830211,42.1132262 56.8830211,41.6914165 C57.1235412,42.1132262 57.3039314,41.9324506 57.3039314,41.450985 C57.7248417,41.450985 58.205882,41.450985 58.205882,41.6914165 C58.4464022,41.6914165 58.205882,41.450985 58.4464022,41.2696068 C61.7535546,40.6067629 64.8803168,39.4618508 68.1874692,38.6182314 C69.5103302,38.6182314 70.652801,38.1964216 71.7351418,37.5341804 C72.3965723,37.9553875 73.2985229,37.1117681 74.3808637,37.1117681 C74.6213839,37.5341804 74.1403435,37.3528022 73.9599534,37.5341804 C74.3808637,37.7746119 74.6213839,36.8707339 75.2828143,36.4489242 C75.7037246,36.2078901 76.184765,36.6899583 76.3651551,36.2078901 C76.3651551,36.4489242 76.124635,36.8707339 76.6056753,36.8707339 C76.8461955,36.8707339 76.6056753,36.4489242 76.8461955,36.2078901 C79.7324376,35.5450462 82.1977693,34.4001341 85.7454419,34.2199611 C86.6473926,33.3160831 88.631684,33.3160831 89.5336346,32.6526367 C90.6159754,33.0744464 92.1793565,31.7487587 93.9832578,31.7487587 C93.9832578,32.4122051 94.6446883,32.4122051 94.6446883,32.8334123 C94.8852085,32.4122051 93.7427377,32.1705684 93.9832578,31.5083272 C94.6446883,31.2666904 94.4041681,31.9295343 94.6446883,31.9295343 C94.8852085,31.9295343 94.6446883,31.5083272 94.8852085,31.2666904 C95.546639,31.5083272 96.2080695,30.8448807 96.2080695,31.2666904 C97.2904102,30.8448807 99.3348317,30.1820369 100.417172,30.3628125 C100.657693,29.9410027 99.9962622,30.3628125 100.176652,29.9410027 C100.417172,29.9410027 101.078603,30.1820369 101.078603,29.7005712 C102.641984,29.9410027 100.417172,29.9410027 102.160944,29.4589345 C102.401464,29.8807442 101.740033,29.4589345 101.920424,29.8807442 C102.341334,29.8807442 102.341334,29.2179003 102.581854,29.2179003 C105.227576,29.4589345 107.271997,27.2293688 109.256289,28.1332468 C109.677199,27.8928152 109.917719,27.0485932 109.256289,26.8075591 C108.835379,26.8075591 109.496809,27.711437 108.835379,27.4704029 C108.835379,24.5779934 106.851087,22.3484277 107.512518,19.6970523 C107.933428,19.4560181 107.512518,20.118862 107.933428,20.118862 C108.354338,19.8778279 107.692908,19.6970523 107.692908,19.4560181 C107.933428,19.4560181 107.933428,19.4560181 107.933428,19.214984 C107.933428,18.9739499 107.512518,19.214984 107.271997,18.9739499 C107.031477,18.9739499 107.271997,19.3957596 107.031477,19.6367937 C105.949136,17.1661939 105.468096,13.8519746 104.385755,11.2005992 C104.145235,10.7787895 104.626276,10.5377554 104.626276,10.2967213 C104.626276,10.0556871 104.385755,10.2967213 104.205365,10.0556871 C103.543935,7.40431171 102.882504,5.17474602 102.221074,2.46311207 C102.882504,2.8849218 102.641984,1.80026822 103.303415,1.80026822 C102.882504,1.80026822 102.882504,1.55923409 102.641984,1.13742436 C102.401464,1.13742436 102.641984,1.80026822 102.401464,2.22207794 C101.499513,2.46311207 102.160944,1.31819996 101.499513,1.13742436 C101.499513,0.896390236 102.160944,1.13742436 102.160944,1.13742436 C102.401464,0.896390236 102.160944,0.474580511 102.581854,0.474580511 L102.160944,0.0527707855 C101.740033,0.0527707855 102.160944,0.715614639 101.920424,0.474580511 C101.499513,0.474580511 101.920424,0.233546382 101.679903,0.0527707855 C101.018473,-0.188263343 101.018473,0.474580511 100.597563,0.474580511 C100.597563,0.896390236 101.018473,0.896390236 101.018473,1.37845849 C100.357042,1.80026822 99.4550918,2.04130235 98.7936613,2.46311207 C98.372751,2.7041462 98.7936613,2.04130235 98.372751,2.04130235 C98.1322308,2.28233647 103.062894,1.61949262 102.341334,1.61949262 L102.341334,0.715614639 L101.920424,0.715614639 C101.679903,0.956648768 101.920424,1.61949262 101.679903,1.80026822 C96.8093699,2.8849218 92.3597467,4.45164363 87.4892132,5.35552161 L87.4892132,4.45164363 C87.248693,4.45164363 87.248693,4.69267776 87.0683029,4.69267776 C87.308823,4.93371189 87.4892132,5.11448749 87.308823,5.77733134 C78.6500968,8.00689703 69.7508504,10.2364627 61.3326443,12.8878381 C60.0097833,12.646804 59.1078327,13.9724917 58.205882,13.1288723 C57.9653618,13.3699064 57.9653618,13.550682 57.7849717,13.7917161 C57.1235412,13.3699064 55.9810704,14.0327502 55.3196399,14.2135258 L55.3196399,13.550682 L54.6582095,13.550682 C54.8987296,13.9724917 54.8987296,13.7917161 54.6582095,14.2135258 C54.2372992,13.7917161 53.996779,14.45456 53.0948283,14.2135258 C52.8543082,14.2135258 53.0948283,14.6353356 52.8543082,14.8763697 C51.9523575,14.45456 53.5157386,13.7917161 52.8543082,13.550682 L53.2752185,13.550682 L53.2752185,13.1288723 C52.8543082,13.1288723 53.0346983,13.550682 52.613788,13.3699064 C52.3732678,13.6109405 52.3732678,14.0327502 51.9523575,14.0327502 C52.1928777,13.7917161 52.3732678,13.7917161 52.3732678,13.3699064 C52.1327476,13.6109405 51.7118373,13.7917161 51.290927,13.7917161 C51.9523575,13.7917161 51.5314472,14.6955941 52.3732678,14.45456 L52.3732678,15.1174038 C51.9523575,14.8763697 51.9523575,14.0327502 51.290927,14.0327502 C51.290927,14.45456 50.8700167,14.6955941 50.6294965,14.9366282 C50.8700167,15.358438 51.0504069,14.5148185 51.5314472,14.6955941 L51.5314472,15.1174038 C51.1105369,15.1174038 50.8700167,15.1174038 50.6294965,15.358438 C50.3889764,14.9366282 49.7275459,15.1174038 49.5471558,14.45456 C49.1262455,14.6955941 49.5471558,14.8763697 49.5471558,15.1174038 C49.3066356,14.8763697 48.8857253,14.45456 48.8857253,13.7917161 C48.464815,13.550682 48.464815,14.0327502 48.2242948,14.2135258 C48.464815,14.45456 48.464815,14.6353356 48.8857253,14.6353356 L48.8857253,15.5392135 C49.3066356,15.7802477 48.8857253,15.1174038 49.3066356,15.2981794 C49.5471558,15.7199891 48.8857253,15.2981794 49.0661154,15.7199891 C40.4073892,17.9495548 31.7486629,20.1791205 23.3304568,22.5894618 C22.2481161,22.5894618 21.5265555,23.0112715 20.6847349,23.2523057 C20.4442148,23.3728227 20.4442148,23.1317886 20.4442148,22.951013 L19.7827843,22.951013 C19.5422641,23.3728227 20.2036946,23.1920471 20.0233045,23.6138569 C19.361874,23.3728227 18.7004435,24.2767007 18.2194032,23.6138569 C17.7984928,24.5177348 16.2351117,24.6985104 15.3331611,24.0356666 C15.3331611,24.4574763 15.7540714,24.2767007 15.5736812,24.6985104 C14.9122508,24.9395446 15.3331611,24.0356666 14.6717306,24.2767007 C14.6717306,24.5177348 14.9122508,24.5177348 14.9122508,24.6985104 C14.0103001,24.9395446 14.0103001,24.4574763 13.3488696,23.6138569 C12.9279593,23.854891 13.5893898,24.0356666 13.3488696,24.2767007 C12.9279593,24.2767007 14.0103001,25.8434225 13.3488696,25.6023884 C13.3488696,25.3613543 14.6717306,24.0356666 14.4312104,23.7946325 C14.1906902,24.0356666 14.1906902,24.2164422 14.1906902,24.4574763 C13.2887396,24.4574763 12.8678293,24.6985104 11.9658786,24.879286 C11.9658786,24.6382519 12.2063988,24.6382519 12.2063988,24.4574763 C11.7854885,24.4574763 11.5449683,24.6985104 11.5449683,25.1203202 C11.3044482,25.1203202 11.3044482,25.1203202 11.3044482,24.879286 C11.063928,24.879286 11.3044482,25.1203202 11.063928,25.3010958 C10.6430177,24.879286 13.0482194,23.7343739 12.6273091,24.2164422 L12.6273091,23.7946325 C12.2063988,23.7946325 12.2063988,24.2164422 11.9658786,24.4574763 C12.2063988,24.879286 12.2063988,24.0356666 12.6273091,24.2164422 L12.6273091,24.6382519 C11.3044482,25.3010958 10.8234078,26.4460079 9.98158721,25.7229055 C9.5606769,25.7229055 10.2221074,25.9639396 9.98158721,26.1447152 C9.32015673,26.3863519 8.41820608,26.3863519 7.99729577,26.5665249 C7.99729577,26.1447152 7.99729577,26.1447152 8.23781595,25.9036811 C7.81690564,25.6626469 7.3358653,24.9998031 6.91495499,25.2408372 C7.15547517,25.6626469 7.3358653,25.6626469 7.99729577,25.6626469 C7.7567756,26.0844567 7.7567756,26.5665249 7.3358653,26.7473005 C6.91495499,26.7473005 7.09534512,26.3254908 6.91495499,26.3254908 C6.67443482,26.5665249 6.67443482,26.7473005 6.49404469,26.9889372 C5.59209404,26.9889372 4.93066356,27.2293688 4.26923308,27.4101444 C4.26923308,27.1691103 4.50975326,26.7473005 4.02871291,26.7473005 C3.78819273,26.7473005 4.02871291,27.1691103 3.78819273,27.4101444 C3.78819273,27.8319541 3.54767256,27.1691103 3.54767256,26.9889372 C2.88624208,27.2293688 2.88624208,27.8928152 1.98429143,27.6511785 L1.98429143,26.9889372 C1.56338113,26.9889372 2.22481161,27.6511785 1.56338113,27.4101444 L1.56338113,26.9889372 C1.14247082,26.9889372 1.14247082,26.7473005 0.661430477,26.7473005 C0.240520174,27.1691103 0.420910304,27.8319541 0.420910304,28.5550565 L0.841820608,28.5550565 C1.08234078,28.5550565 0.841820608,27.8928152 1.08234078,27.6511785 C1.50325109,27.4101444 1.50325109,27.8928152 1.74377126,27.8928152 C1.74377126,28.7966932 1.98429143,29.2179003 1.98429143,29.8807442 C1.98429143,29.8807442 1.74377126,29.8807442 1.74377126,29.6397101 L1.50325109,29.6397101 C1.50325109,29.2179003 1.92416139,29.3992785 1.74377126,28.9768662 C1.98429143,29.3992785 1.98429143,29.2179003 1.50325109,29.2179003 C1.26273091,29.2179003 1.50325109,29.4589345 1.26273091,29.6397101 L0.661430477,29.6397101 C0.661430477,28.3140224 0,27.8319541 0,26.5062664 C0.420910304,26.5062664 0.420910304,26.7473005 0.661430477,26.7473005 C0.901950651,26.7473005 0.661430477,26.5062664 0.901950651,26.3254908 C1.8039013,26.5665249 2.22481161,25.6626469 2.88624208,26.3254908 C3.12676226,26.0844567 3.54767256,26.0844567 3.54767256,25.6626469 C3.96858286,25.4216128 3.96858286,25.9036811 3.96858286,26.0844567 C3.96858286,25.1805787 4.87053352,25.6626469 5.77248417,25.1805787 C5.53196399,25.6023884 6.19339447,25.4216128 6.01300434,26.0844567 L6.43391464,26.0844567 L6.43391464,25.6626469 C6.43391464,25.2408372 5.77248417,25.6626469 6.01300434,25.4216128 C6.25352451,24.9998031 7.09534512,24.3369592 7.57638547,24.9998031 C7.81690564,24.9998031 7.57638547,24.758769 7.81690564,24.5779934 C8.05742582,24.5779934 8.05742582,24.8190275 8.23781595,24.8190275 C9.5606769,23.9151495 12.0260087,23.9151495 13.5893898,23.2523057 L12.6273091,23.854891 C14.4312104,23.4330813 12.3867889,23.854891 14.4312104,23.6138569 C14.1906902,24.2767007 14.8521207,24.0356666 15.0926409,24.0356666 C15.0926409,23.6138569 14.6717306,23.7946325 14.8521207,23.3728227 C17.0769323,23.1317886 18.8207036,21.8061009 21.0455152,22.047135 C21.2860354,22.047135 21.0455152,21.8061009 21.2860354,21.6253253 C22.8494165,21.2035156 24.5931878,20.7214473 26.1565689,20.2996376 C28.3813805,20.0586035 30.3656719,19.214984 32.3499634,18.7329158 C37.2204969,17.6482622 42.0910304,16.2623159 46.5406536,14.9366282 C47.8635146,14.9366282 48.7654652,14.0327502 50.0883262,14.5148185 C50.3288463,14.5148185 50.0883262,14.2737844 50.3288463,14.0930088 C50.5693665,14.0930088 51.230797,13.8519746 50.9902768,14.3340429 C50.9902768,14.0930088 51.4111871,14.0930088 51.4111871,13.9122332 C62.5352451,11.0198236 73.5991731,7.88637996 84.9637513,4.99397042 C85.3846616,4.99397042 85.2042715,5.65681428 85.6251818,5.41578015 C85.865702,4.99397042 85.2042715,5.17474602 85.3846616,4.75293629 C87.3689531,4.51190216 89.1728544,3.84905831 91.1571458,3.42724859 L93.1414372,2.76440473 C95.7871591,2.5233706 97.5910605,1.67975115 99.8158721,1.1976829 C99.5753519,1.61949262 100.056392,1.61949262 100.236782,1.86052675 C100.657693,1.61949262 99.8158721,1.61949262 99.9962622,1.1976829 C102.882504,0.534839043 100.417172,0.775873171 103.303415,0.293804914 C103.303415,1.37845849 103.964845,2.10156088 103.543935,2.76440473 C103.543935,3.00543886 103.784455,2.76440473 103.964845,3.00543886 C103.964845,4.5721607 105.287706,6.13888253 104.626276,7.46457024 C105.287706,8.12741409 105.287706,9.69413593 105.708616,10.5980139 C105.287706,10.5980139 105.468096,10.1762042 105.047186,10.3569798 C106.129527,11.0198236 106.610567,12.5865455 106.370047,14.1532673 C106.790957,14.1532673 106.129527,13.2493893 106.790957,13.4904235 C106.550437,14.8161112 107.873298,15.9610233 107.211867,17.0456769 C108.534728,18.6123987 108.113818,21.7458424 109.436679,23.2523057 C109.677199,25.9036811 110.51902,27.4704029 111.00006,29.7005712 C105.889006,31.0256563 105.889006,31.5083272 101.018473,32.8334123 L98.372751,32.7134978 Z M54.1771691,43.8613262 C54.5980794,43.8613262 54.8385996,44.1017578 54.8385996,44.2825334 C54.4176893,44.2825334 54.4176893,44.1017578 54.1771691,43.8613262 L54.1771691,43.8613262 Z M70.8331911,2.46311207 C71.0737113,2.46311207 71.0737113,2.8849218 71.2541014,2.7041462 L71.2541014,3.12595593 C71.9155319,2.8849218 71.9155319,3.36699005 72.3364422,3.36699005 L72.3364422,4.02983391 C71.9155319,3.78879978 72.095922,4.27086804 71.9155319,4.27086804 C71.6750117,4.27086804 71.4946216,4.02983391 71.0135813,4.02983391 C70.7730611,3.78879978 71.0135813,3.36699005 70.7730611,3.36699005 C70.7730611,2.94518033 71.1939714,3.12595593 71.0135813,2.94518033 C71.0737113,2.8849218 70.8331911,2.8849218 70.8331911,2.46311207 L70.8331911,2.46311207 Z M51.0504069,65.6743123 C51.0504069,65.4332782 50.8098867,65.2531052 50.6294965,65.2531052 C50.6294965,65.4935367 50.2085862,65.4935367 50.3889764,65.6743123 C50.6294965,65.4332782 50.8098867,65.4332782 51.0504069,65.6743123 L51.0504069,65.6743123 Z M51.9523575,65.6743123 C51.9523575,66.096122 51.9523575,67 51.7118373,67 L51.7118373,66.3371561 C51.4713172,67 50.3889764,66.7595685 49.4870257,66.7595685 C49.7275459,66.5179317 49.7275459,66.3371561 50.1484562,66.096122 L50.1484562,66.5179317 C50.5693665,65.6140538 49.2465056,66.096122 48.5850751,66.096122 C48.3445549,66.5179317 49.0059854,66.096122 48.8255952,66.5179317 C48.1641648,66.7595685 48.1641648,66.2768976 47.7432545,66.096122 C48.1641648,65.8556905 47.7432545,65.192244 47.9837746,64.5294002 C48.2242948,64.7704343 48.6452051,64.7704343 49.0661154,64.5294002 C49.0661154,64.7704343 49.0661154,64.9518125 49.3066356,64.9518125 C49.5471558,64.9518125 49.3066356,64.7101758 49.3066356,64.5294002 C49.5471558,64.5294002 49.9680661,64.7704343 49.9680661,64.9518125 C50.8700167,64.7101758 51.5314472,64.7101758 52.1928777,64.9518125 C51.9523575,65.3730196 51.9523575,65.192244 52.1928777,65.6140538 C52.1928777,65.9153464 52.3732678,65.4332782 51.9523575,65.6743123 L51.9523575,65.6743123 Z" id="Fill-9" fill="#3B7CFF" mask="url(#mask-2)"></path>
                </g>
                <path d="M10.3,66.9194 L10.72,66.9194 C10.72,66.5 10.48,66.5 10.3,66.2594 L10.3,66.9194 Z M11.38,66.5 C12.04,66.5 12.04,66.08 12.04,65.4194 L11.62,65.4194 C11.38,65.78 11.38,66.0194 11.38,66.5 L11.38,66.5 Z M10.48,66.9194 C10.9,66.9194 11.14,66.68 11.14,66.5 C10.96,66.68 10.48,66.5 10.48,66.9194 L10.48,66.9194 Z M12.28,66.0194 C12.7,66.0194 12.52,65.6 12.7,65.3594 L12.28,65.3594 L12.28,66.0194 Z M4.06,49.6394 L4.48,49.6394 C4.48,49.2194 4.24,48.98 4.06,48.98 L4.06,49.6394 Z M3.16,46.28 L3.16,45.6194 L2.74,45.6194 C2.5,45.8594 2.74,46.1 3.16,46.28 L3.16,46.28 Z M1.66,43.4 L2.08,43.4 C2.08,43.1594 2.32,42.7394 1.84,42.98 C2.08,43.4 1.42,42.98 1.66,43.4 L1.66,43.4 Z M4.72,51.38 C4.96,51.38 5.14,51.38 5.14,50.9594 C4.96,50.9594 4.54,50.9594 4.72,51.38 L4.72,51.38 Z M14.92,66.68 C10.06,67.7594 12.7,66.9194 7.84,68 C7.84,67.58 7.18,66.9194 7.84,66.4394 C7.18,66.2 7.18,65.5394 7.18,64.6394 C7.42,64.6394 7.42,64.88 7.6,64.88 C7.84,64.88 7.6,64.6394 7.84,64.4594 C7.84,64.2194 7.42,64.4594 7.18,64.2194 L3.88,52.28 C3.88,52.0394 4.12,52.0394 4.12,51.8594 C3.7,51.4394 3.04,49.6394 3.46,48.98 C2.14,48.08 2.38,45.68 1.48,44.3 C1.24,43.88 1.9,44.3 1.9,43.88 C1.9,43.6394 1.48,43.88 1.24,43.6394 C1.24,42.98 1.24,42.7394 1,42.3194 C1.42,42.7394 1.42,42.3194 1.66,41.9 C1.9,41.9 2.08,41.9 2.08,42.3194 C2.32,42.3194 2.32,42.08 2.5,42.08 L2.5,41 C3.16,41.2394 2.5,42.08 2.5,42.5594 C2.92,42.8 2.5,42.1394 2.92,42.3194 C3.34,44.9594 4.9,47.6594 4.48,50.3 C4.72,50.7194 4.72,50.0594 4.9,50.0594 L4.9,51.8594 C5.98,53.4194 6.46,55.4 6.7,57.6194 C6.04,58.0394 6.28,59.4194 5.62,59.6 C5.62,59.8394 5.86,59.8394 6.04,59.8394 C6.04,59.18 6.94,59.18 6.7,58.28 C6.7,58.0394 6.94,58.28 6.94,58.5194 C6.94,58.7594 7.18,58.5194 7.36,58.7594 C7.36,60.5594 8.44,61.88 8.02,63.4394 C8.26,63.4394 8.26,63.2 8.44,63.2 L8.44,64.1 C8.2,64.1 7.78,63.8594 7.78,64.3394 C8.02,64.7594 8.44,64.3394 8.68,64.1 C9.1,65 8.26,65.9 9.1,66.5594 L9.76,65.2394 C10.42,65 10.18,65.6594 10.84,65.48 C10.84,65.2394 10.84,65.2394 10.6,65.2394 C19,62.78 20.8,63.0194 29.02,60.5594 C29.44,60.5594 29.68,60.5594 29.68,60.8 C29.92,60.8 29.68,60.5594 29.92,60.38 C30.16,60.38 30.34,60.6194 30.34,60.8 C30.58,60.5594 30.1,60.38 30.58,60.1394 C33.46,59.7194 36.1,58.8194 38.56,58.1594 C39.22,58.1594 39.88,58.1594 40.12,57.7394 C40.54,58.1594 41.02,57.7394 41.44,57.5 C41.44,57.9194 41.02,57.7394 41.2,58.1594 C41.44,57.7394 42.28,57.7394 42.28,57.08 C42.52,57.08 42.7,57.5 43.18,57.3194 C43.42,57.3194 43.18,57.08 43.42,56.9 C44.74,56.9 46.3,55.8194 47.2,56.2394 C47.44,56 47.62,55.58 48.28,55.8194 C48.28,56.0594 48.04,56.0594 48.04,56.2394 C48.28,56.48 48.46,56.48 48.7,56.6594 C48.94,56.6594 48.7,56.2394 48.94,56 C48.7,56 48.7,56 48.7,56.2394 C48.28,55.8194 49.12,55.58 49.78,55.58 C49.36,55.8194 49.78,56 50.2,56 C49.54,55.3394 50.86,56 50.62,55.1 C51.94,55.1 52.84,54.68 53.92,54.4394 C53.92,54.68 53.68,54.68 53.68,54.8594 C53.68,55.1 54.1,54.8594 54.34,55.1 C54.58,54.68 53.92,55.1 54.1,54.68 C54.34,54.68 54.34,54.68 54.34,54.4394 C54.76,54.4394 54.76,54.8594 55,55.1 C55,54.8594 54.58,54.8594 54.76,55.3394 C53.86,55.3394 52.96,55.7594 52.78,54.9194 C52.36,55.1594 51.88,55.3394 51.88,56 C51.64,55.7594 51.22,55.7594 50.98,55.58 C50.98,56 50.98,56 50.74,56.9 C51.16,56.48 51.64,56 52.3,55.8194 C52.54,56.2394 51.88,55.8194 52.06,56.2394 C52.48,56.48 52.06,55.8194 52.48,56 C52.24,56.4194 53.14,56 52.9,56.4194 C51.82,56.4194 51.34,57.08 50.02,56.8394 C50.26,56.8394 50.26,55.9394 50.02,55.9394 C49.6,56.3594 49.6,57.0194 49.36,57.2594 C49.12,57.2594 48.46,57.5 48.7,57.0194 C48.28,57.0194 48.94,57.2594 48.7,57.4394 C46.24,57.68 43.18,59.2394 41.86,58.7594 C41.62,58.7594 41.86,59 41.62,59.18 C40.72,59.18 39.82,59.8394 38.98,59.4194 C38.74,59.4194 38.98,59.6594 38.74,59.8394 C32.56,61.4 26.8,63.38 20.32,64.5194 C20.32,64.28 20.08,64.1 19.9,63.8594 C19.48,64.28 20.32,64.28 20.32,64.7594 C19,65 17.68,65.4194 16.54,65.8394 L14.92,66.68 Z" id="Fill-11" fill="#3B7CFF"></path>
                <path d="M29.8705219,45.9419372 C30.4585219,45.9139372 30.9205219,45.7599372 31.2285219,45.4659372 C31.5645219,45.1019372 31.8025219,44.0659372 31.9425219,42.3299372 L30.9625219,42.0219372 C30.8785219,43.5619372 30.6965219,44.4579372 30.4165219,44.7099372 C30.2065219,44.8779372 29.9265219,44.9619372 29.5905219,44.9619372 L22.5625219,44.9619372 C21.9185219,44.9619372 21.5965219,44.6399372 21.5965219,44.0239372 L21.5965219,39.8939372 L30.3885219,39.8939372 L30.3885219,34.2939372 L20.0285219,34.2939372 L20.0285219,35.2739372 L29.3665219,35.2739372 L29.3665219,38.9279372 L21.5965219,38.9279372 L21.5965219,36.8559372 L20.5885219,36.8559372 L20.5885219,44.2059372 C20.5885219,45.3539372 21.1485219,45.9419372 22.2825219,45.9419372 L29.8705219,45.9419372 Z M34.7751885,46.3619372 C36.0071885,45.7179372 36.8891885,44.8079372 37.4211885,43.6319372 C37.8411885,42.6799372 38.1071885,41.4899372 38.2331885,40.0479372 L42.2791885,40.0479372 L42.2791885,46.2499372 L43.3011885,46.2499372 L43.3011885,40.0479372 L46.3671885,40.0479372 L46.3671885,39.0819372 L43.3011885,39.0819372 L43.3011885,35.3719372 L45.6391885,35.3719372 L45.6391885,34.3919372 L34.7331885,34.3919372 L34.7331885,35.3719372 L37.2811885,35.3719372 L37.2811885,38.5919372 C37.2811885,38.7319372 37.2671885,38.8999372 37.2671885,39.0819372 L33.9771885,39.0819372 L33.9771885,40.0479372 L37.2111885,40.0479372 C37.0991885,41.1679372 36.9031885,42.1199372 36.6091885,42.9319372 C36.1611885,43.9959372 35.3631885,44.8499372 34.2291885,45.4939372 L34.7751885,46.3619372 Z M42.2791885,39.0819372 L38.3031885,39.0819372 C38.3031885,38.9279372 38.3171885,38.7599372 38.3171885,38.5919372 L38.3171885,35.3719372 L42.2791885,35.3719372 L42.2791885,39.0819372 Z M51.5938552,46.4319372 C53.2878552,45.7739372 54.7158552,45.0459372 55.8638552,44.2339372 C57.0398552,45.0039372 58.5238552,45.7179372 60.3158552,46.3759372 L60.8338552,45.4379372 C59.2098552,44.8779372 57.8238552,44.2619372 56.6898552,43.5899372 C57.8378552,42.6099372 58.5938552,41.5179372 58.9718552,40.3139372 L58.9718552,39.4459372 L53.2458552,39.4459372 C53.4418552,38.9419372 53.6098552,38.4099372 53.7778552,37.8499372 L60.5958552,37.8499372 L60.5958552,36.8839372 L54.0438552,36.8839372 C54.2958552,35.8479372 54.5198552,34.7559372 54.7018552,33.5799372 L53.6798552,33.4539372 C53.5118552,34.6579372 53.2878552,35.7919372 53.0078552,36.8839372 L50.5578552,36.8839372 L51.3558552,34.1259372 L50.3618552,33.9579372 L49.2558552,37.8499372 L52.7278552,37.8499372 C51.7478552,40.9719372 50.2498552,43.4219372 48.2058552,45.2139372 L48.7238552,46.1379372 C50.3198552,44.8359372 51.6358552,43.0859372 52.6578552,40.8739372 C53.1198552,41.8539372 53.8898552,42.7639372 54.9818552,43.6039372 C53.9318552,44.2899372 52.6298552,44.9199372 51.0618552,45.4939372 L51.5938552,46.4319372 Z M58.8458552,36.5899372 L59.5598552,35.8759372 C58.8878552,35.1059372 58.0618552,34.3359372 57.0538552,33.5659372 L56.3818552,34.2239372 C57.4318552,35.0639372 58.2578552,35.8479372 58.8458552,36.5899372 Z M55.8078552,43.0159372 C54.6878552,42.2039372 53.8898552,41.3219372 53.4138552,40.3699372 L57.9498552,40.3699372 C57.5578552,41.3219372 56.8438552,42.2039372 55.8078552,43.0159372 Z M64.1705219,38.1859372 L64.1705219,36.0299372 L73.9985219,36.0299372 L73.9985219,38.1859372 L75.0205219,38.1859372 L75.0205219,35.0499372 L69.6585219,35.0499372 C69.4905219,34.4899372 69.3085219,33.9999372 69.1265219,33.5519372 L67.9925219,33.7479372 C68.1885219,34.1399372 68.3565219,34.5739372 68.5245219,35.0499372 L63.1485219,35.0499372 L63.1485219,38.1859372 L64.1705219,38.1859372 Z M72.9905219,38.6339372 L72.9905219,37.6539372 L65.1505219,37.6539372 L65.1505219,38.6339372 L72.9905219,38.6339372 Z M63.3585219,46.4599372 C64.9265219,46.0259372 66.0605219,45.4239372 66.7605219,44.6679372 C67.4605219,43.8279372 67.8385219,42.7219372 67.8805219,41.3499372 L67.8805219,41.2519372 L70.2325219,41.2519372 L70.2325219,44.7799372 C70.2325219,45.7039372 70.6525219,46.1799372 71.5205219,46.1799372 L73.8865219,46.1799372 C74.3625219,46.1799372 74.6985219,46.0399372 74.9225219,45.7879372 C75.1745219,45.5079372 75.3425219,44.6819372 75.4265219,43.3379372 L74.4745219,43.0299372 C74.4185219,44.0939372 74.3345219,44.7239372 74.2225219,44.9339372 C74.1245219,45.1159372 73.9565219,45.2139372 73.7045219,45.2139372 L71.8425219,45.2139372 C71.4365219,45.2139372 71.2405219,44.9899372 71.2405219,44.5699372 L71.2405219,41.2519372 L75.2025219,41.2519372 L75.2025219,40.2859372 L63.0085219,40.2859372 L63.0085219,41.2519372 L66.8865219,41.2519372 L66.8865219,41.3499372 C66.8445219,42.4419372 66.5505219,43.3239372 65.9905219,43.9959372 C65.3745219,44.6539372 64.3105219,45.1719372 62.7845219,45.5639372 L63.3585219,46.4599372 Z M77.9651885,46.3899372 C79.0011885,44.8779372 79.5611885,42.8619372 79.6171885,40.3559372 L79.6171885,39.9359372 L82.0391885,39.9359372 C82.0111885,41.4759372 81.9691885,42.4839372 81.8851885,42.9599372 C81.8011885,43.3519372 81.6051885,43.5619372 81.2971885,43.5759372 C80.9191885,43.5759372 80.4571885,43.5619372 79.9111885,43.5339372 L80.2191885,44.4439372 C80.6671885,44.4719372 81.0731885,44.4999372 81.4091885,44.4999372 C82.1091885,44.4719372 82.5431885,44.1639372 82.7251885,43.5619372 C82.9071885,42.8759372 83.0191885,41.3499372 83.0471885,38.9839372 L79.6171885,38.9839372 L79.6171885,36.6599372 L84.4191885,36.6599372 C84.5311885,38.4099372 84.7271885,39.8799372 85.0351885,41.0559372 C85.1891885,41.6579372 85.3711885,42.2179372 85.5671885,42.7359372 C84.6011885,43.9539372 83.4111885,44.8779372 82.0111885,45.5079372 L82.5711885,46.3479372 C83.8871885,45.7599372 85.0351885,44.9059372 86.0151885,43.7579372 C86.2251885,44.1919372 86.4631885,44.5839372 86.7151885,44.9199372 C87.3871885,45.7599372 88.0171885,46.1799372 88.6051885,46.1799372 C89.2351885,46.1799372 89.7111885,45.2419372 90.0471885,43.3799372 L89.1371885,42.8759372 C88.9271885,44.3179372 88.6891885,45.0459372 88.4371885,45.0599372 C88.1571885,45.0599372 87.7791885,44.7239372 87.3171885,44.0519372 C87.0931885,43.7299372 86.8831885,43.3379372 86.6871885,42.8899372 C87.5831885,41.6299372 88.3111885,40.0619372 88.8711885,38.2139372 L87.9611885,37.8219372 C87.5271885,39.3199372 86.9671885,40.6359372 86.2671885,41.7559372 C86.1691885,41.4479372 86.0711885,41.1259372 85.9871885,40.7759372 C85.7351885,39.7679372 85.5531885,38.3959372 85.4551885,36.6599372 L89.7671885,36.6599372 L89.7671885,35.6939372 L88.0591885,35.6939372 L88.7031885,35.0499372 C88.2271885,34.5319372 87.6531885,34.0139372 86.9811885,33.5099372 L86.3371885,34.1259372 C87.0511885,34.6719372 87.6111885,35.1899372 88.0311885,35.6939372 L85.4131885,35.6939372 C85.3851885,35.0219372 85.3711885,34.3079372 85.3711885,33.5239372 L84.3351885,33.5239372 C84.3351885,34.2799372 84.3491885,34.9939372 84.3771885,35.6939372 L78.5951885,35.6939372 L78.5951885,40.3559372 C78.5531885,42.6379372 78.0911885,44.4159372 77.1951885,45.7039372 L77.9651885,46.3899372 Z" id="已开发完成" fill="#3B7CFF" fill-rule="nonzero" transform="translate(55.037855, 39.956937) rotate(-15.000000) translate(-55.037855, -39.956937) "></path>
            </g>
        </g>
    </g>
</svg>