<?xml version="1.0" encoding="UTF-8"?>
<svg width="18px" height="18px" viewBox="0 0 18 18" version="1.1" xmlns="http://www.w3.org/2000/svg" xmlns:xlink="http://www.w3.org/1999/xlink">
    <title>编辑</title>
    <g id="07营销（V1.0.3)" stroke="none" stroke-width="1" fill="none" fill-rule="evenodd">
        <g id="管理文档（V1.0.3)" transform="translate(-458.000000, -217.000000)" fill="#70757D">
            <g id="内容" transform="translate(274.000000, 80.000000)">
                <g id="左侧" transform="translate(15.000000, 84.000000)">
                    <g id="一级标题" transform="translate(0.000000, 34.000000)">
                        <g id="编辑" transform="translate(169.000011, 19.000000)">
                            <path d="M14.0250163,9.58386958 C14.0251116,9.31464798 14.2434727,9.09647743 14.5126941,9.09657276 C14.7818202,9.09671576 15,9.31479098 15,9.58386958 L15,13.1722198 C14.9997999,14.1816102 14.1816014,14.9998093 13.1722117,15 L3.82782659,15 C2.81838932,14.999857 2.00019077,14.1816102 2,13.1722198 L2,3.82782783 C1.99966644,2.81920015 2.81662565,2.00109633 3.82520492,2 L7.867244,2 C8.13646541,2 8.35473113,2.21826588 8.35473113,2.48753515 C8.35473113,2.75675676 8.13646541,2.97502264 7.867244,2.97502264 L3.82520492,2.97502264 C3.35506846,2.97607131 2.9746407,3.35769102 2.97502203,3.82782783 L2.97502203,13.1722198 C2.9752127,13.6431193 3.3568798,14.0248344 3.82782659,14.025025 L13.1722117,14.025025 C13.6431109,14.0248344 14.0248256,13.6431193 14.0250163,13.1722198 L14.0250163,9.58420325 L14.0250163,9.58386958 Z" id="Fill-1"></path>
                            <polygon id="直线-5" fill-rule="nonzero" points="15.4999891 1.79289322 16.2070959 2.5 8.49998912 10.2071068 7.79288234 9.5"></polygon>
                        </g>
                    </g>
                </g>
            </g>
        </g>
    </g>
</svg>