<?xml version="1.0" encoding="UTF-8"?>
<svg width="20px" height="20px" viewBox="0 0 20 20" version="1.1" xmlns="http://www.w3.org/2000/svg" xmlns:xlink="http://www.w3.org/1999/xlink">
    <title>编辑</title>
    <g id="01产品开发-产品" stroke="none" stroke-width="1" fill="none" fill-rule="evenodd">
        <g id="功能定义" transform="translate(-453.000000, -106.000000)" fill="#3B7CFF">
            <g id="内容" transform="translate(275.000000, 80.000000)">
                <g id="编组-4" transform="translate(54.000000, 18.000000)">
                    <g id="编辑" transform="translate(124.000000, 8.000000)">
                        <path d="M10,10.8888889 C9.63769275,10.8888889 9.45650639,10.8197632 9.11111111,10.8888889 C9.04203206,10.4051965 9.04203206,9.95723611 9.11111111,10 L17.1111111,2 C17.068298,1.93089774 17.5163531,1.93089774 18,2 C18.0690791,2.48362227 18.0690791,2.93167617 18,2.88888889 L10,10.8888889 C10.1809712,10.8197632 9.9998784,10.8888889 10,10.8888889 M16.2222222,18 L4.66666667,18 C3.83244219,18 3.21398585,17.7457437 2.88888889,17.1111111 C2.27768008,16.8353034 2,16.2496848 2,15.3333333 L2,3.77777778 C2,3.4728442 2.28923824,2.92131066 2.88888889,2.88888889 C3.2437339,2.1968644 3.82817894,2 4.66666667,2 L10.8888889,2 C10.9693223,2 11.2226545,2.24854476 10.8888889,2.88888889 C11.2226545,2.85627263 10.9693223,3.10472528 10.8888889,2.88888889 L4.66666667,2.88888889 C3.81273648,3.10472528 3.13601563,3.48371458 2.88888889,3.77777778 L2.88888889,15.3333333 C3.13601563,16.2751104 3.80629422,16.8951826 4.66666667,17.1111111 L16.2222222,17.1111111 C16.5083341,16.8951826 16.8638896,16.2688461 17.1111111,15.3333333 L17.1111111,10 C16.8638896,9.38319813 17.1194008,9.13695641 17.1111111,9.11111111 C17.7443941,9.13695641 18,9.38319813 18,10 L18,15.3333333 C18,16.2538303 17.8146905,16.8063771 17.1111111,17.1111111 C17.0696628,17.7345048 16.519608,18 16.2222222,18" id="Fill-1"></path>
                    </g>
                </g>
            </g>
        </g>
    </g>
</svg>