<?xml version="1.0" encoding="UTF-8"?>
<svg width="18px" height="18px" viewBox="0 0 18 18" version="1.1" xmlns="http://www.w3.org/2000/svg" xmlns:xlink="http://www.w3.org/1999/xlink">
    <title>添加</title>
    <g id="02产品开发-设备" stroke="none" stroke-width="1" fill="none" fill-rule="evenodd">
        <g id="固件OTA" transform="translate(-1298.000000, -168.000000)" fill="#3B7CFF">
            <g id="内容" transform="translate(274.000000, 80.000000)">
                <g id="编组-4" transform="translate(1009.000000, 79.000000)">
                    <g id="添加" transform="translate(15.000000, 9.000000)">
                        <path d="M2,10 C1.69892571,9.99545987 1.00448,10.1885282 1,10.5 C1.00118857,10.5047293 1,10.9940411 1,11 C1,11.2080893 1.10971429,11.2464476 1.26633143,11.3517218 L4.632,14.8337177 C4.84630857,15.0554274 5.19373714,15.0554274 5.40795429,14.8337177 C5.62226286,14.6120081 5.62226286,14.2524865 5.40795429,14.0308714 L2.5,11 L16,11 C16.3156114,11 17,10.826511 17,10.5 C17,10.173489 16.3156114,10 16,10 L2,10 Z M16.5,8.00004605 C16.8022629,8.00331051 16.9945143,7.47533851 16.9977143,7.16254247 C16.9978057,7.15856986 16.9978057,7.15469183 16.9977143,7.15071922 C16.9966171,7.14589533 17,7.50586433 17,7.5 C16.9978057,7.30118014 17.1634743,7.10451757 17,7 L13.368,3.16628226 C13.1537829,2.94457258 12.8062629,2.94457258 12.5919543,3.16628226 C12.3776457,3.38789735 12.3776457,3.74732431 12.5919543,3.96903399 L15.5,7 L1.5,7 C1.18438857,7 1,7.17348899 1,7.5 C1,7.82651101 1.18438857,8.00004605 1.5,8.00004605 L16.5,8.00004605 Z" id="Fill-1"></path>
                    </g>
                </g>
            </g>
        </g>
    </g>
</svg>