<?xml version="1.0" encoding="UTF-8"?>
<svg width="36px" height="36px" viewBox="0 0 36 36" version="1.1" xmlns="http://www.w3.org/2000/svg" xmlns:xlink="http://www.w3.org/1999/xlink">
    <title>失败    icon</title>
    <g id="05APP开发（V1.0.2)" stroke="none" stroke-width="1" fill="none" fill-rule="evenodd">
        <g id="构建&amp;测试-完成" transform="translate(-315.000000, -645.000000)">
            <g id="内容" transform="translate(275.000000, 80.000000)">
                <g id="编组-8" transform="translate(20.000000, 221.000000)">
                    <g id="1备份-5" transform="translate(0.000000, 312.000000)">
                        <g id="失败----icon" transform="translate(20.000000, 32.000000)">
                            <polygon id="Clip-2" points="0 0 35.9999121 0 35.9999121 36 0 36"></polygon>
                            <path d="M0,18 C0,27.9413086 8.05869141,36 18,36 C27.9413086,36 36,27.9413086 36,18 C36,8.05869141 27.9413086,0 18,0 C8.05869141,0 0,8.05869141 0,18 Z" id="路径" fill="#FF4444"></path>
                            <path d="M26.8806716,24.3092145 C26.8795522,24.3066856 26.8806716,24.3041568 26.8795522,24.3021337 C25.2794776,20.5715821 21.9013433,18 17.9926119,18 C14.0838806,18 10.7055224,20.5728465 9.10544776,24.3031453 C9.10231343,24.3092145 9.10231343,24.3162952 9.10119403,24.3238818 C9.03626866,24.4753596 9,24.6437806 9,24.8218113 C9,25.4573099 9.45380597,25.9721827 10.0152985,25.9721827 C10.4265672,25.9721827 10.7791791,25.6942627 10.938806,25.2959697 L10.9399254,25.2972341 C12.2120149,22.3405089 14.8925373,20.3020073 17.9926119,20.3020073 C21.093806,20.3020073 23.773209,22.3405089 25.0452985,25.2972341 L25.046194,25.2959697 C25.2006716,25.7099415 25.561791,26 25.9826866,26 C26.5439552,26 27,25.4838628 27,24.8483642 C27,24.6531373 26.9563433,24.4692903 26.8806716,24.3092145 M24.4993806,15 C25.8809052,15 27,13.8805109 27,12.5 C27,11.119077 25.8809052,10 24.4993806,10 C23.1190948,10 22,11.119077 22,12.5 C22,13.8805109 23.1190948,15 24.4993806,15 M11.499587,15 C12.8809052,15 14,13.8805109 14,12.5 C14,11.119077 12.8809052,10 11.499587,10 C10.1190948,10 9,11.119077 9,12.5 C9,13.8805109 10.1190948,15 11.499587,15" id="Fill-1" fill="#FFFFFF"></path>
                        </g>
                    </g>
                </g>
            </g>
        </g>
    </g>
</svg>