<?xml version="1.0" encoding="UTF-8"?>
<svg width="48px" height="48px" viewBox="0 0 48 48" version="1.1" xmlns="http://www.w3.org/2000/svg" xmlns:xlink="http://www.w3.org/1999/xlink">
    <title>完成</title>
    <defs>
        <polygon id="path-1" points="0 0 48 0 48 48 0 48"></polygon>
    </defs>
    <g id="00登录注册" stroke="none" stroke-width="1" fill="none" fill-rule="evenodd">
        <g id="注册成功" transform="translate(-695.000000, -389.000000)">
            <g id="toast" transform="translate(595.000000, 360.000000)">
                <g id="完成" transform="translate(100.000000, 29.000000)">
                    <mask id="mask-2" fill="white">
                        <use xlink:href="#path-1"></use>
                    </mask>
                    <g id="Clip-2"></g>
                    <circle id="椭圆形" fill="#FFFFFF" cx="24.5" cy="23.5" r="17.5"></circle>
                    <path d="M39.82512,16.5624 L21.75648,34.6308 C21.31536,35.07216 20.73816,35.29152 20.16,35.29152 C19.5816,35.29152 19.00224,35.07216 18.56208,34.6308 L8.17368,24.2412 C7.2912,23.35896 7.2912,21.92928 8.17368,21.048 C9.05592,20.16456 10.4856,20.16456 11.36784,21.048 L20.16,29.83992 L36.63072,13.368 C37.51296,12.48576 38.94264,12.48576 39.82512,13.368 C40.70736,14.25024 40.70736,15.68016 39.82512,16.5624 M24.00096,0 C10.74384,0 0,10.74408 0,24.0012 C0,37.25496 10.74384,48 24.00096,48 C37.25472,48 48,37.25496 48,24.0012 C48,10.74408 37.25472,0 24.00096,0" id="Fill-1" fill="#3B7CFF"></path>
                </g>
            </g>
        </g>
    </g>
</svg>