<?xml version="1.0" encoding="UTF-8"?>
<svg width="12px" height="12px" viewBox="0 0 12 12" version="1.1" xmlns="http://www.w3.org/2000/svg" xmlns:xlink="http://www.w3.org/1999/xlink">
    <title>编组</title>
    <g id="05APP开发（V1.0.2)" stroke="none" stroke-width="1" fill="none" fill-rule="evenodd">
        <g id="上架必备-地图" transform="translate(-525.000000, -624.000000)" fill="#000000">
            <g id="内容" transform="translate(275.000000, 80.000000)">
                <g id="编组-8" transform="translate(21.000000, 363.000000)">
                    <g id="编组-3备份-3" transform="translate(119.000000, 134.000000)">
                        <g id="编组" transform="translate(110.000000, 46.999991)">
                            <path d="M9.79076558,9.79086127 C8.77810987,10.8034984 7.43186698,11.3611353 5.99997704,11.3611353 C4.56771971,11.3611353 3.22129312,10.8034984 2.20882111,9.79090719 C1.19644094,8.77836193 0.638885593,7.43200599 0.638885593,5.99991275 C0.638885593,4.56791135 1.19644094,3.22164726 2.20882111,2.20914792 C3.22133905,1.19655673 4.56771971,0.63891978 5.99997704,0.63891978 C7.43186698,0.63891978 8.77810987,1.19660265 9.79076558,2.20919384 C10.8034213,3.22183095 11.3610685,4.56804911 11.3610685,5.99991275 C11.3610685,7.43186823 10.8034213,8.77817824 9.79076558,9.79086127 M5.99997704,0 C2.68550544,0 0,2.68646641 0,5.99986682 C0,9.31354278 2.68550544,12 5.99997704,12 C9.3133924,12 12,9.31354278 12,5.99986682 C12,2.68646641 9.3133924,0 5.99997704,0" id="Fill-1"></path>
                            <path d="M6.49898971,8.00000918 C6.77631337,8.00000918 7,7.79318134 7,7.53853594 L7,2.46152482 C7,2.20641312 6.77631337,2.00000918 6.49898971,2.00000918 C6.22364071,2.00000918 6,2.20641312 6,2.46152482 L6,7.53853594 C6,7.79318134 6.22364071,8.00000918 6.49898971,8.00000918" id="Fill-3"></path>
                            <path d="M6.50003544,9.00000918 C6.22391921,9.00000918 6,9.22399133 6,9.49995603 C6,9.77602704 6.22399008,10.0000092 6.50003544,10.0000092 C6.77671864,10.0000092 7,9.77602704 7,9.49995603 C7,9.22392046 6.77671864,9.00000918 6.50003544,9.00000918" id="Fill-5"></path>
                        </g>
                    </g>
                </g>
            </g>
        </g>
    </g>
</svg>