<?xml version="1.0" encoding="UTF-8"?>
<svg width="36px" height="36px" viewBox="0 0 36 36" version="1.1" xmlns="http://www.w3.org/2000/svg" xmlns:xlink="http://www.w3.org/1999/xlink">
    <title>加载</title>
    <g id="06APP开发-多语言（V1.0.2)" stroke="none" stroke-width="1" fill="none" fill-rule="evenodd">
        <g id="导入语言包02-检查文件内容" transform="translate(-520.000000, -367.000000)" fill="#3B7CFF">
            <g id="弹窗备份-3" transform="translate(430.000000, 260.000000)">
                <g id="编组-8" transform="translate(90.000000, 101.000000)">
                    <g id="加载" transform="translate(0.000000, 6.000000)">
                        <path d="M26.7715321,5.16012429 C33.7853538,9.86151948 35.6561589,19.3531132 30.9499475,26.3599409 C29.1060457,29.1056067 26.4279253,31.1687714 23.329145,32.2586315 L25.2928697,33.4839432 C25.9067849,33.8673739 26.0619623,34.4466021 25.7585115,35.2219043 C25.4548416,35.9970682 24.9961038,36.1931423 24.3820791,35.8097116 L19.9799063,33.061353 C19.5218774,32.7753868 19.3191361,32.3803563 19.3717735,31.876204 C19.3424998,31.6766192 19.3903963,31.451446 19.5158191,31.2002926 L21.714412,26.798007 C22.0211589,26.1840914 22.4845449,26.0289139 23.1047915,26.3324744 C23.7249273,26.636035 23.8817878,27.0947731 23.5750408,27.7087983 L22.3597557,30.1438035 C28.7662405,28.023104 32.5321135,21.2806759 30.8432772,14.644811 C30.0563365,11.5529758 28.1561477,8.85952214 25.505933,7.07950915 C25.0143111,6.67138394 24.9470248,5.94233344 25.3555574,5.45120181 C25.7014953,5.03542965 26.2894167,4.91455848 26.7715321,5.16012429 Z M11.140033,0.10638242 L16.3764607,2.02673109 C16.962914,2.24179423 17.2290802,2.61023456 17.1749593,3.13205207 C17.1968946,3.3213104 17.1635085,3.53620918 17.0754388,3.77637324 L15.1551458,9.01269898 C14.8872127,9.74312668 14.3815663,9.97674927 13.6380802,9.71369097 C12.8945941,9.45050847 12.6567544,8.95382758 12.9245612,8.22352408 L13.8657003,5.65379067 C7.31572289,8.02461679 3.77907306,15.1757922 5.94316077,21.8478694 C6.26230756,22.8321061 6.6982485,23.7744079 7.24147707,24.6551641 C7.57815533,25.1979743 7.4106187,25.9107442 6.8671432,26.2470867 C6.68293933,26.361051 6.47046288,26.4211165 6.25378875,26.4203833 L6.26144334,26.4127295 C5.85945419,26.4140863 5.4854907,26.2068785 5.27387848,25.8653558 C0.843108666,18.6763579 3.08503769,9.26049375 10.2812113,4.83414215 C11.2275663,4.25214266 12.2342376,3.77492301 13.2834627,3.41083918 L10.3508614,2.33690527 C9.62056103,2.06909079 9.38693943,1.56342975 9.64987241,0.819922129 C9.91305379,0.0764145113 10.4097326,-0.161432058 11.140033,0.10638242 Z" id="形状结合"></path>
                    </g>
                </g>
            </g>
        </g>
    </g>
</svg>