<?xml version="1.0" encoding="UTF-8"?>
<svg width="54px" height="36px" viewBox="0 0 54 36" version="1.1" xmlns="http://www.w3.org/2000/svg" xmlns:xlink="http://www.w3.org/1999/xlink">
    <title>logo</title>
    <g id="04授权管理" stroke="none" stroke-width="1" fill="none" fill-rule="evenodd">
        <g id="添加自定义角色" transform="translate(-16.000000, -12.000000)" fill="#FFFFFF">
            <g id="logo" transform="translate(16.000000, 12.000000)">
                <g id="编组">
                    <polygon id="Fill-5" points="52.6179342 26.8855438 54 25.9429361 52.9349158 24.4830781 51.5528499 25.4259031"></polygon>
                    <polygon id="Fill-7" points="50.4873743 23.9660451 51.8696576 23.0232202 50.8045733 21.5635794 49.4222901 22.5061871"></polygon>
                    <polygon id="Fill-9" points="50.1703927 26.3684239 51.5524586 25.4258162 50.4873743 23.9659582 49.1053085 24.9087832"></polygon>
                    <polygon id="Fill-11" points="49.8531937 28.7709113 51.235477 27.8280863 50.1703927 26.3684456 48.7883269 27.3112705"></polygon>
                    <polygon id="Fill-13" points="47.7228513 25.851304 49.1051346 24.908479 48.0400503 23.4488383 46.6577671 24.391446"></polygon>
                    <polygon id="Fill-15" points="47.4058697 28.2539 48.7879356 27.3112923 47.7228513 25.8514343 46.3407855 26.7942592"></polygon>
                    <path d="M6.57903184,19.0120432 C6.68773609,26.7573283 14.3516031,31.9719757 24.5971961,31.8874691 C32.4460778,31.8227313 39.627298,29.2903557 45.3062254,25.2774842 L46.3406551,26.7942592 L44.972286,27.7273083 L46.0375876,29.1869491 L47.4196534,28.2443414 L47.4096526,28.230438 L48.6071387,29.8395403 C42.6025333,33.078383 33.191789,35.2414493 24.4930574,35.253886 C17.9601494,35.2631734 11.9531526,34.0605285 7.40214042,31.1896917 C3.1609354,28.5145889 -0.622624731,23.9071294 0.0859095714,17.9790633 C0.282881673,16.3312921 0.91097483,14.7032897 2.09846006,13.1860802 C4.15036148,10.5644186 8.14719935,8.78413051 12.7408236,8.78413051 C12.7403887,8.78608567 12.7399539,8.78804084 12.7397365,8.78999601 C12.7403887,8.78804084 12.741041,8.78608567 12.7414758,8.78413051 C14.184416,3.71351371 18.853481,0 24.3908755,0 C29.9421841,0 34.620815,3.7326309 36.0509281,8.8230166 C37.7547586,8.65183088 40.5341088,9.18754661 42.8653802,10.4840395 C48.6893191,13.7224477 48.0194835,20.6672006 42.7251517,23.5000202 C41.0356702,24.4039591 38.9761595,24.9023094 36.8407732,24.9385886 C33.0078614,25.0037608 28.9279734,23.5814855 26.2949391,20.3487256 C23.9471447,17.4668096 23.5782025,17.685571 21.2954132,20.2983258 C18.6167231,23.3640275 15.2321076,23.894095 11.7805302,23.7337713 C10.4604258,23.6727266 10.70001,22.9871148 11.6842182,22.5815262 C16.5365586,20.5813905 19.7905116,16.2715509 21.7982791,11.8745977 C22.9135847,9.43194248 25.1065842,9.37154955 26.229934,11.9269527 C27.331108,14.4317388 28.7529596,17.0540521 30.4789657,18.9453502 C38.5635182,27.8031254 46.4741439,14.5303661 36.3924769,10.4814326 C35.5680639,10.1503577 34.6760368,9.90661356 33.7368321,9.76497258 C33.5324681,9.45822861 33.3139725,9.16212944 33.0815628,8.87710955 C28.3642332,3.50235568 19.3322145,3.85906503 15.1286211,9.64114534 C10.7654499,9.86468609 6.50967853,14.050264 6.57903184,19.0120432" id="Fill-17"></path>
                </g>
                <path d="M23.7484272,23.1095875 C23.1806396,25.1986922 22.0426932,25.8247067 19.3141225,26.2275606 L19.3141225,26.2275606 C19.1433982,26.2524309 18.9685783,26.2911927 18.7853515,26.3225607 L18.7853515,26.3225607 C18.5902688,26.3557211 18.4740814,26.3931385 18.4663212,26.4321244 L18.4663212,26.4321244 L18.4663212,26.4401905 L18.4663212,26.4404145 L18.4663212,26.4408626 L18.4663212,26.4487046 C18.4740814,26.4879145 18.5902688,26.5251079 18.7853515,26.5584924 L18.7853515,26.5584924 C18.9685783,26.5896363 19.1433982,26.6283981 19.3141225,26.6534924 L19.3141225,26.6534924 C22.0426932,27.0563464 23.1806396,27.6821368 23.7484272,29.7712415 L23.7484272,29.7712415 C23.7762345,29.8745317 23.8710814,30.4783645 24.0620684,30.4974093 L24.0620684,30.4974093 C24.253271,30.4783645 24.3481178,29.8745317 24.375494,29.7712415 L24.375494,29.7712415 C24.9437127,27.6821368 26.0814435,27.0563464 28.8102298,26.6534924 L28.8102298,26.6534924 C28.9807385,26.6283981 29.155774,26.5896363 29.3387853,26.5584924 L29.3387853,26.5584924 C29.533868,26.5251079 29.6500553,26.4879145 29.6580311,26.4487046 L29.6580311,26.4487046 L29.6580311,26.4408626 L29.6580311,26.4404145 L29.6580311,26.4401905 L29.6580311,26.4321244 C29.6500553,26.3931385 29.533868,26.3557211 29.3387853,26.3225607 L29.3387853,26.3225607 C29.155774,26.2911927 28.9807385,26.2524309 28.8102298,26.2275606 L28.8102298,26.2275606 C26.0814435,25.8247067 24.9437127,25.1986922 24.375494,23.1095875 L24.375494,23.1095875 C24.3481178,23.0060733 24.253271,22.4026886 24.0620684,22.3834197 L24.0620684,22.3834197 C23.8710814,22.4026886 23.7762345,23.0060733 23.7484272,23.1095875" id="Fill-25"></path>
            </g>
        </g>
    </g>
</svg>