<?xml version="1.0" encoding="UTF-8"?>
<svg width="24px" height="24px" viewBox="0 0 24 24" version="1.1" xmlns="http://www.w3.org/2000/svg" xmlns:xlink="http://www.w3.org/1999/xlink">
    <title>icon</title>
    <g id="01产品开发-产品" stroke="none" stroke-width="1" fill="none" fill-rule="evenodd">
        <g id="硬件开发-待选择模组" transform="translate(-28.000000, -351.000000)" fill="#343A40" fill-rule="nonzero">
            <g id="菜单栏" transform="translate(0.000000, 60.000000)">
                <g id="1备份-7" transform="translate(0.000000, 280.000000)">
                    <g id="icon" transform="translate(28.000000, 11.000000)">
                        <path d="M18,13 C20.209139,13 22,14.790861 22,17 L22,20 C22,21.1045695 21.1045695,22 20,22 L4,22 C2.8954305,22 2,21.1045695 2,20 L2,17 C2,14.790861 3.790861,13 6,13 L18,13 Z M18,14 L6,14 C4.40231912,14 3.09633912,15.24892 3.00509269,16.8237272 L3,17 L3,20 C3,20.5128358 3.38604019,20.9355072 3.88337887,20.9932723 L4,21 L20,21 C20.5128358,21 20.9355072,20.6139598 20.9932723,20.1166211 L21,20 L21,17 C21,15.4023191 19.75108,14.0963391 18.1762728,14.0050927 L18,14 Z" id="矩形"></path>
                        <path d="M12,2 C14.7614237,2 17,4.23857625 17,7 C17,9.76142375 14.7614237,12 12,12 C9.23857625,12 7,9.76142375 7,7 C7,4.23857625 9.23857625,2 12,2 Z M12,3 C9.790861,3 8,4.790861 8,7 C8,9.209139 9.790861,11 12,11 C14.209139,11 16,9.209139 16,7 C16,4.790861 14.209139,3 12,3 Z" id="椭圆形"></path>
                    </g>
                </g>
            </g>
        </g>
    </g>
</svg>