<?xml version="1.0" encoding="UTF-8"?>
<svg width="24px" height="24px" viewBox="0 0 24 24" version="1.1" xmlns="http://www.w3.org/2000/svg" xmlns:xlink="http://www.w3.org/1999/xlink">
    <title>icon</title>
    <g id="00主页（V1.0.2)" stroke="none" stroke-width="1" fill="none" fill-rule="evenodd">
        <g id="主页" transform="translate(-28.000000, -72.000000)" fill="#3B7CFF" fill-rule="nonzero">
            <g id="菜单栏" transform="translate(0.000000, 60.000000)">
                <g id="icon" transform="translate(28.000000, 12.000000)">
                    <path d="M11.939624,0 L12.9406224,1.00012773 L21.9496076,9.00114957 C22.0025073,9.05389164 22.0603734,9.11399627 22.1208864,9.17993202 L22.3080468,9.39370114 C22.7207156,9.88813351 23.1472237,10.5642265 22.950606,11.001405 C22.7163182,11.5382773 21.7374693,11.9442104 21.083405,11.9959487 L20.9486093,12.0015328 L20.9486093,21.0026823 C20.9486093,22.2885681 20.3204438,22.941912 19.0479636,22.9962937 L18.8704484,23 L15.0058447,23 C14.5338572,23 14.0337571,22.5591752 13.9691748,22.1015129 L13.9621708,22.0033392 L13.9416207,17.0021714 C13.9416207,16.7768425 13.2975847,16.1076265 13.0021577,16.0131739 L12.9406224,16.0020437 L10.9508611,16.0043677 C10.71373,16.0043677 10.0251682,16.6814059 9.93441384,16.9713593 L9.92449897,17.0271796 L9.92449897,22.0033392 C9.92449897,22.4561794 9.55658808,22.9273963 9.09913689,22.9924026 L8.99210847,23 L4.9720596,23 C3.64155484,23 2.97605817,22.4165695 2.92070403,21.1913928 L2.91693246,21.02034 L2.91693246,12.0152344 C2.26805112,12.0152344 1.3060495,11.5578746 1.05441758,10.9797164 C0.819083858,10.438244 1.39636435,9.56707793 1.84245183,9.09090324 L1.92964044,9.00114957 L10.4738593,0.79437987 C10.6732456,0.577423681 10.9787255,0.398254886 11.2593032,0.265336285 L11.4906446,0.162930017 L11.6914573,0.0843612041 L11.939624,0 Z M4.9720596,22 L8.96265551,21.99901 L8.924,21.991 L8.92449897,17.0271796 C8.92449897,16.2636579 10.0379346,15.1146693 10.837725,15.0117939 L10.9496931,15.0043684 L12.9406224,15.0020437 C13.7084651,15.0020437 14.83365,16.0983558 14.9343457,16.8875597 L14.9416123,16.9980624 L14.9621708,22.0033392 C14.9621708,21.9400187 15.0152691,21.9799135 15.0139942,21.9949706 L15.0058447,22 L18.8704484,22 C19.6716143,22 19.9197523,21.8073091 19.9461728,21.1345255 L19.9486093,21.0026823 L19.9486093,11.0015328 L20.9486093,11.0015328 C21.1204937,11.0015328 21.4194827,10.9279273 21.6806215,10.8081839 C21.7754877,10.7646837 21.8541778,10.7199971 21.9133953,10.6825415 L21.956,10.653 L21.9109232,10.5617541 L21.8603388,10.473958 C21.7392559,10.2745131 21.5635981,10.0508024 21.402541,9.8727406 L21.2855668,9.74884586 L12.2338233,1.70754209 L11.692,1.167 L11.6533505,1.18578128 C11.5065321,1.25905056 11.367486,1.34197831 11.2611247,1.42832701 L11.1665809,1.51558501 L2.63329661,9.7116902 C2.55120711,9.79298433 2.47255179,9.88487212 2.39993288,9.97771068 L2.26351467,10.1617983 L2.14781981,10.3312785 L1.99710499,10.5578448 C1.98249181,10.5774033 1.97364563,10.5859558 1.97133748,10.5806451 C2.02742567,10.7095153 2.4904062,10.9632408 2.82195056,11.0083076 L2.91693246,11.0152344 L3.91693246,11.0152344 L3.91693246,21.02034 C3.91693246,21.8005244 4.12417704,22 4.9720596,22 Z" id="蒙版"></path>
                </g>
            </g>
        </g>
    </g>
</svg>