<?xml version="1.0" encoding="UTF-8"?>
<svg width="24px" height="24px" viewBox="0 0 24 24" version="1.1" xmlns="http://www.w3.org/2000/svg" xmlns:xlink="http://www.w3.org/1999/xlink">
    <title>icon</title>
    <g id="01产品开发模块" stroke="none" stroke-width="1" fill="none" fill-rule="evenodd">
        <g id="我的产品（列表页面样式参考）" transform="translate(-28.000000, -281.000000)" fill="#343A40" fill-rule="nonzero">
            <g id="1备份-3" transform="translate(0.000000, 270.000000)">
                <g id="icon" transform="translate(28.000000, 11.000000)">
                    <path d="M15.1862375,4.29993673 L14.0806637,3.42781606 L13.8122121,3.53660415 C13.7909417,3.54522386 13.7674488,3.55240637 13.7399788,3.55816357 L13.6438829,3.57117111 L13.5133964,3.57569811 L13.3379911,3.57181587 L12.9676307,3.55038121 L12.4456175,3.51473799 L12.1474897,3.50230007 C12.0998511,3.50112511 12.0523628,3.50037507 12.003713,3.50001379 C10.8461448,3.49049134 9.78248115,3.75827228 8.1470602,4.40269195 L7.67758243,4.59118108 L7.36718154,5.0352628 C6.48866818,6.34207118 5.91473497,7.68886457 5.62515554,9.17940241 L5.554,9.581 L5.39718044,9.61779622 C4.97175364,9.72219472 4.56559071,9.85742469 4.06212437,10.051634 L3.13322642,10.4184296 L2.83444776,10.528203 L2.66384987,10.5880653 L2.57099012,10.7431917 C1.49676551,12.5377322 1.07716764,14.7654829 1.52406862,16.1532623 L1.57464424,16.2628164 C2.88117237,18.3773693 4.25933758,19 7,19 L17.999597,19 C21.0578501,18.4359435 22.8363915,16.4671092 22.4955363,13.933338 C22.1529089,11.8554837 21.0357622,10.4284807 19.2175581,9.54981284 L19.0829755,9.48477429 L18.8046128,9.51969622 C18.7203173,9.52859578 18.6413624,9.53483439 18.5700108,9.53904488 L18.39,9.546 L18.2998108,9.22627153 C18.0929643,8.52807122 17.8966856,8.11907656 17.5305109,7.78507751 L17.512,7.77 L17.5145103,7.65585971 C17.5002123,6.82774578 17.1559801,6.17096526 16.5345942,5.73859732 L16.373,5.635 L16.4502159,5.78250138 C16.2498077,5.36766214 15.9840906,5.02319678 15.6072189,4.66786049 C15.4839105,4.55159822 15.3487913,4.43380343 15.1862375,4.29993673 Z M11.9958871,4.49998308 L12.2552968,4.50651037 L12.5542202,4.52345325 L13.0979711,4.5613521 L13.3847227,4.57554306 C13.5546597,4.58106103 13.6857372,4.57833888 13.7995667,4.56524796 L13.892,4.551 L14.6150565,5.12176293 L14.7900357,5.2718746 L14.9212059,5.39544975 C15.2145035,5.67198759 15.4064739,5.92085062 15.5497841,6.21749862 L15.6226536,6.36833641 L15.7716867,6.44482921 C16.324579,6.72860709 16.5774391,7.205008 16.5025102,7.94996146 L16.4733653,8.23972331 L16.7110251,8.40803612 C17.0101112,8.61985167 17.1578793,8.88831304 17.3463436,9.5284252 L17.5208873,10.143007 L17.5883673,10.3690837 L17.8057714,10.4607334 L17.8917644,10.490266 C18.0799687,10.5428794 18.3634345,10.5568128 18.7052808,10.5326154 L18.908,10.514 L18.7824419,10.4501872 C20.3148823,11.1907565 21.2206032,12.3476917 21.5066706,14.0814009 C21.7672387,16.0200183 20.3910526,17.5434478 17.9079481,18.0085466 L16.7058685,17.9997063 L6.99996956,18 L6.74584321,17.998148 C4.58775723,17.9657147 3.56792362,17.4987013 2.54362847,15.9238517 L2.46,15.793 L2.42667838,15.6684939 C2.18099648,14.6202539 2.50142455,12.9399979 3.28579614,11.5069534 L3.342,11.408 L4.17164077,11.0828563 C4.95468865,10.7710962 5.45578405,10.6090785 6.09089247,10.4916692 L6.45009991,10.4252642 L6.49603167,10.0628696 L6.54985814,9.68985729 C6.78963077,8.21172761 7.32389698,6.89691249 8.18478719,5.61148772 L8.325,5.408 L8.18784466,5.46337284 C9.90405468,4.76764607 10.9252674,4.49117604 11.9958871,4.49998308 Z" id="Fill-1"></path>
                </g>
            </g>
        </g>
    </g>
</svg>