<?xml version="1.0" encoding="UTF-8"?>
<svg width="24px" height="24px" viewBox="0 0 24 24" version="1.1" xmlns="http://www.w3.org/2000/svg" xmlns:xlink="http://www.w3.org/1999/xlink">
    <title>icon</title>
    <g id="04授权管理" stroke="none" stroke-width="1" fill="none" fill-rule="evenodd">
        <g id="权限设置-默认角色" transform="translate(-28.000000, -72.000000)" fill="#343A40" fill-rule="nonzero">
            <g id="1" transform="translate(0.000000, 60.000000)">
                <g id="icon" transform="translate(28.000000, 12.000000)">
                    <path d="M11,14 L11,21 C11,21.2836556 10.2836556,22 10,22 L6,22 C3.7163444,22 3,21.2836556 3,21 L3,17 C3,14.7163444 3.7163444,14 6,14 L11,14 Z M21,14 C21.2836556,14 22,14.7163444 22,17 L22,21 C22,21.2836556 21.2836556,22 21,22 L17,22 C14.7163444,22 14,21.2836556 14,21 L14,14 L21,14 Z M10,15 L4,15 L4,21 L10,21 L10,15 Z M21,15 L15,15 L15,21 L21,21 L21,15 Z M10,3 C10.2836556,3 11,3.7163444 11,6 L11,11 L6,11 C3.7163444,11 3,10.2836556 3,10 L3,6 C3,3.7163444 3.7163444,3 6,3 L10,3 Z M10,4 L4,4 L4,10 L10,10 L10,4 Z" id="形状"></path>
                    <path d="M17,3 C19.209139,3 21,4.790861 21,7 C21,9.209139 19.209139,11 17,11 C14.790861,11 13,9.209139 13,7 C13,4.790861 14.790861,3 17,3 Z M17.6,4 C15.3431458,4 14,5.34314575 14,7.6 C14,8.65685425 15.3431458,10 17.6,10 C18.6568542,10 20,8.65685425 20,7.6 C20,5.34314575 18.6568542,4 17.6,4 Z" id="形状结合"></path>
                </g>
            </g>
        </g>
    </g>
</svg>