<?xml version="1.0" encoding="UTF-8"?>
<svg width="24px" height="24px" viewBox="0 0 24 24" version="1.1" xmlns="http://www.w3.org/2000/svg" xmlns:xlink="http://www.w3.org/1999/xlink">
    <title>icon</title>
    <g id="01产品开发模块" stroke="none" stroke-width="1" fill="none" fill-rule="evenodd">
        <g id="我的产品（列表页面样式参考）" transform="translate(-28.000000, -211.000000)" fill="#343A40">
            <g id="1备份-2" transform="translate(0.000000, 200.000000)">
                <g id="icon" transform="translate(28.000000, 11.000000)">
                    <g id="编组" transform="translate(2.999858, 2.999986)">
                        <path d="M11.0001422,7.00001359 L17.0001422,7.00001359 C16.9163701,5.43117161 16.2570278,3.95000974 15.150825,2.84530213 C14.0442407,1.72795873 12.563429,1.06966456 11.0001422,1.00001359 L11.0001422,7.00001359 Z M17.6522446,8.00001359 L10.3481416,8.00001359 C10.1561889,8.00001359 10.0006468,7.84339169 10.0001422,7.64987775 L10.0001422,0.351686275 C9.99964004,0.160795398 10.1505679,0.00459656778 10.3397521,1.35888091e-05 L10.371129,1.35888091e-05 C11.387522,-0.00191876802 12.3940153,0.202256625 13.3306238,0.600453642 C14.2343452,0.983927692 15.0559331,1.54001583 15.7501677,2.23817214 C16.4460802,2.9342977 17.0019712,3.75962997 17.3873029,4.66864624 C17.7873163,5.60998534 17.9957964,6.62282391 18.0001647,7.64691623 C18.0012496,7.84068401 17.8463786,7.99865975 17.6542581,7.99984436 L17.6522446,7.99984436 L17.6522446,8.00001359 Z" id="Fill-3"></path>
                        <path d="M8.00014216,2.00001359 C6.14675707,2.09437645 4.49682356,2.87716139 3.19007402,4.1951536 C1.7829869,5.59915316 0.9945423,7.50702682 1.00011253,9.49509529 C0.994723907,11.4866149 1.78607421,13.3974857 3.1978831,14.8018485 C4.60197372,16.2139312 6.51265565,17.0054349 8.50388006,17.0000413 C10.4949229,17.0054349 12.4054232,16.2138403 13.8096046,14.8018485 C15.140871,13.4776805 15.9233226,11.8762816 16.0001422,10.0000136 L8.50014216,10.0000136 C8.29220272,10.0000136 8.00014216,9.70799334 8.00014216,9.50001359 L8.00014216,2.00001359 Z M5.19128967,17.3319551 C3.15377315,16.4682071 1.53194852,14.8462493 0.668221735,12.808683 C0.225234592,11.7620897 -0.00200781119,10.6366935 1.33651002e-05,9.50017322 C-0.00256867274,7.2496612 0.890042477,5.09047837 2.48101973,3.49880783 C3.25229783,2.72311734 4.16659562,2.104098 5.1733421,1.67605669 C6.21645109,1.23156303 7.33845462,1.00160417 8.47232971,0.999972172 C8.57534128,0.999734589 8.67423986,1.04049153 8.74724534,1.11321835 C8.82025082,1.1858517 9.00014216,1.3969995 9.00014216,1.50001359 L9.00014216,9.00001359 L16.5001422,9.00001359 C16.7128022,8.99963967 16.9978926,9.23357051 17.0001664,9.4463292 L17.0001664,9.50017322 C17.0028469,11.7550788 16.1067771,13.9180942 14.5102847,15.5105126 C13.7358284,16.286764 12.8180719,16.9054094 11.8078668,17.3319551 C10.7614861,17.7748596 9.63639784,18.0021075 8.50009235,18.0001798 C7.36341295,18.002201 6.23795079,17.774953 5.19128967,17.3319551 Z" id="Fill-1"></path>
                    </g>
                </g>
            </g>
        </g>
    </g>
</svg>