<?xml version="1.0" encoding="UTF-8"?>
<svg width="20px" height="20px" viewBox="0 0 20 20" version="1.1" xmlns="http://www.w3.org/2000/svg" xmlns:xlink="http://www.w3.org/1999/xlink">
    <title>zhengyan</title>
    <defs>
        <polygon id="path-1" points="0 0 18 0 18 11.9326278 0 11.9326278"></polygon>
    </defs>
    <g id="00登录注册" stroke="none" stroke-width="1" fill="none" fill-rule="evenodd">
        <g id="登录" transform="translate(-1070.000000, -463.000000)">
            <g id="内容框" transform="translate(240.000000, 220.000000)">
                <g id="编组-2备份" transform="translate(560.000000, 233.000000)">
                    <g id="zhengyan" transform="translate(270.000000, 10.000000)">
                        <polygon id="矩形备份-2" points="0.0174910605 0 20 0.0470127392 19.9951818 19.826809 0 20"></polygon>
                        <g id="编组" transform="translate(0.965387, 4.027590)">
                            <mask id="mask-2" fill="white">
                                <use xlink:href="#path-1"></use>
                            </mask>
                            <g id="Clip-2"></g>
                            <path d="M9,0 C4.59886364,0 0,5.00582386 0,5.96633523 C0,6.92684659 4.69772727,11.9326705 9,11.9326705 C13.202983,11.9326705 18,7.02784091 18,5.96633523 C18,5.00582386 13.4011364,0 9,0 M9,1.415625 C10.4454545,1.415625 12.199858,2.14644886 13.940625,3.47301136 C15.2326705,4.4578125 16.1041193,5.45795455 16.4607955,5.97357955 C16.1045455,6.48323864 15.2164773,7.48423295 13.8775568,8.48309659 C12.1184659,9.79474432 10.3866477,10.5170455 9,10.5170455 C7.59119318,10.5170455 5.85042614,9.78622159 4.09815341,8.45923295 C2.79673295,7.47357955 1.91548295,6.47940341 1.54772727,5.96122159 C1.90994318,5.4421875 2.77755682,4.45014205 4.05980114,3.47301136 C5.80014205,2.14644886 7.55454545,1.415625 9,1.415625" id="Fill-1" fill="#3B7CFF" mask="url(#mask-2)"></path>
                        </g>
                        <path d="M9.96538744,7.26358431 C8.45729085,7.26358431 7.23513176,8.48616954 7.23513176,9.99384 C7.23513176,11.5019366 8.45729085,12.7240957 9.96538744,12.7240957 C11.4730579,12.7240957 12.6956431,11.5019366 12.6956431,9.99384 C12.6956431,8.48616954 11.4730579,7.26358431 9.96538744,7.26358431 M9.96538744,8.67920931 C10.6902454,8.67920931 11.2800181,9.26898204 11.2800181,9.99384 C11.2800181,10.718698 10.6902454,11.3084707 9.96538744,11.3084707 C9.24052949,11.3084707 8.65075676,10.718698 8.65075676,9.99384 C8.65075676,9.26898204 9.24052949,8.67920931 9.96538744,8.67920931" id="Fill-3" fill="#3B7CFF"></path>
                    </g>
                </g>
            </g>
        </g>
    </g>
</svg>