<?xml version="1.0" encoding="UTF-8"?>
<svg width="24px" height="24px" viewBox="0 0 24 24" version="1.1" xmlns="http://www.w3.org/2000/svg" xmlns:xlink="http://www.w3.org/1999/xlink">
    <title>密码</title>
    <defs>
        <polygon id="path-1" points="0 0 19.7999842 0 19.7999842 24 0 24"></polygon>
    </defs>
    <g id="00登录注册" stroke="none" stroke-width="1" fill="none" fill-rule="evenodd">
        <g id="登录" transform="translate(-810.000000, -461.000000)">
            <g id="内容框" transform="translate(240.000000, 220.000000)">
                <g id="编组-2备份" transform="translate(560.000000, 233.000000)">
                    <g id="密码" transform="translate(9.999959, 8.000000)">
                        <g id="编组" transform="translate(2.000041, 0.000000)">
                            <mask id="mask-2" fill="white">
                                <use xlink:href="#path-1"></use>
                            </mask>
                            <g id="Clip-2"></g>
                            <path d="M3,11.1 L3,19.9 C3,20.3829043 3.58128,21 4.07692308,21 L15.9230769,21 C16.41872,21.0007912 16.9991289,20.3867322 17,19.9 L17,19.9 L17,11.1 C17,10.6170957 16.41872,10 15.9230769,10 L4.07692308,10 C3.58115556,9.99920877 3.00087111,10.6132678 3,11.1 L3,11.1 Z M6,9 L14,9 L14,6.6 C14,4.82999149 12.20992,3 10.5714286,3 C7.790336,3 6,4.8314315 6,6.6 L6,9 Z M5,9 L5,7 C4.90909091,4.3501953 7.18784,2 10,2 C12.81216,2 15.0909091,4.3489953 15,7 L15,9 L15,9 C16.8055273,8.999946 18,10.2327035 18,12 L18,19 C18,20.7692825 16.8075055,22 15,22 L5,22 C3.19447273,22 2,20.7672425 2,19 L2,12 C2,10.2307835 3.19249455,8.999946 5,9 L5,9 Z" id="Fill-1" fill="#8392A7" mask="url(#mask-2)"></path>
                        </g>
                    </g>
                </g>
            </g>
        </g>
    </g>
</svg>