<?xml version="1.0" encoding="UTF-8"?>
<svg width="14px" height="14px" viewBox="0 0 14 14" version="1.1" xmlns="http://www.w3.org/2000/svg" xmlns:xlink="http://www.w3.org/1999/xlink">
    <title>Fill 1备份</title>
    <g id="01产品开发-产品（V1.0.1+V1.0.2+V1.0.4)" stroke="none" stroke-width="1" fill="none" fill-rule="evenodd">
        <g id="添加功能2（V1.0.4)" transform="translate(-452.000000, -466.000000)" fill="#3B7CFF">
            <g id="弹窗备份-3" transform="translate(310.000000, 130.000000)">
                <g id="内容" transform="translate(20.500000, 100.000000)">
                    <g id="编组-3备份-6" transform="translate(106.500000, 226.000000)">
                        <path d="M28.125,16.125 L22.875,16.125 L22.875,10.875 C22.875,10.39172 22.48328,10 22,10 C21.51672,10 21.125,10.39172 21.125,10.875 L21.125,16.125 L15.875,16.125 C15.39172,16.125 15,16.51672 15,17 C15,17.48328 15.39172,17.875 15.875,17.875 L21.125,17.875 L21.125,23.125 C21.125,23.60828 21.51672,24 22,24 C22.48328,24 22.875,23.60828 22.875,23.125 L22.875,17.875 L28.125,17.875 C28.60828,17.875 29,17.48328 29,17 C29,16.51672 28.60828,16.125 28.125,16.125" id="Fill-1备份"></path>
                    </g>
                </g>
            </g>
        </g>
    </g>
</svg>