<?xml version="1.0" encoding="UTF-8"?>
<svg width="20px" height="20px" viewBox="0 0 20 20" version="1.1" xmlns="http://www.w3.org/2000/svg" xmlns:xlink="http://www.w3.org/1999/xlink">
    <title>Fill 1</title>
    <g id="05APP开发（V1.0.2+V1.0.3+V1.0.4)" stroke="none" stroke-width="1" fill="none" fill-rule="evenodd">
        <g id="房间管理-相关切图V1.0.4" transform="translate(-422.000000, -198.000000)" fill="#3B7CFF">
            <g id="编组-3" transform="translate(86.000000, 175.000000)">
                <g id="房间new" transform="translate(20.000000, 12.000000)">
                    <path d="M325.533324,25.1666869 L331.425113,19.2750407 C331.751786,18.9508057 331.753731,18.4224048 331.429488,18.0962254 C331.104759,17.7690737 330.576831,17.7671293 330.250158,18.0918504 L324.941714,23.4001653 L322.583054,21.0503123 C322.258325,20.7270496 321.733314,20.7270496 321.408099,21.0503123 C321.081425,21.3740612 321.078995,21.901976 321.403238,22.2286416 C321.405182,22.2300999 321.40664,22.2320443 321.408099,22.2335027 L324.33309,25.1666869 C324.490594,25.322728 324.703515,25.4097416 324.925186,25.4082833 C325.152205,25.4141166 325.371931,25.327103 325.533324,25.1666869 M326,31 C320.477177,31 316,26.5229322 316,21.0002431 C316,15.4770678 320.477177,11 326,11 C331.522823,11 336,15.4770678 336,21.0002431 C336,26.5229322 331.522823,31 326,31" id="Fill-1"></path>
                </g>
            </g>
        </g>
    </g>
</svg>