<?xml version="1.0" encoding="UTF-8"?>
<svg width="20px" height="20px" viewBox="0 0 20 20" version="1.1" xmlns="http://www.w3.org/2000/svg" xmlns:xlink="http://www.w3.org/1999/xlink">
    <title>生成</title>
    <g id="05APP开发（V1.0.2+V1.0.3+V1.0.4)" stroke="none" stroke-width="1" fill="none" fill-rule="evenodd">
        <g id="上架必备-Android证书(V1.0.1+V1.0.4)" transform="translate(-945.000000, -766.000000)" fill="#3B7CFF">
            <g id="内容" transform="translate(275.000000, 80.000000)">
                <g id="1" transform="translate(18.000000, 281.000000)">
                    <g id="生成" transform="translate(652.000000, 405.000000)">
                        <g id="编组" transform="translate(3.000000, 2.000000)">
                            <path d="M13,0 C13.5522847,0 14,0.44771525 14,1 L14,8 L13,8 L13,1 L1,1 L1,14 L6,14 L6,15 L6,15 L1,15 C0.44771525,15 0,14.5522847 0,14 L0,1 C0,0.44771525 0.44771525,0 1,0 L13,0 Z" id="形状结合" fill-rule="nonzero"></path>
                            <path d="M2,10 L4,10 L4,9 L2,9 L2,10 Z M2,7 L7,7 L7,6 L2,6 L2,7 Z M2,4 L12,4 L12,3 L2,3 L2,4 Z M7.00899076,11.3946862 C7.00899076,9.7397776 8.35350917,8.39509501 10.0081573,8.39509501 C10.5126218,8.39509501 10.9931448,8.5194891 11.407274,8.74444968 L12.1366132,8.01502142 C11.5009961,7.60936821 10.761438,7.3946862 10.0065223,7.3946862 C7.79625665,7.3946862 6.00695228,9.18415066 6.00695228,11.3946862 L4.5073398,11.3946862 L6.50966494,13.3955622 L8.50860323,11.3963798 L7.00899076,11.3963798 L7.00899076,11.3946862 Z M13.5084599,9.39550381 L11.5078282,11.3946862 L13.0073823,11.3946862 C13.0073823,13.0495364 11.6628639,14.394219 10.0081573,14.394219 C9.51910882,14.3959126 9.03858582,14.2749058 8.60909905,14.0448643 L7.87975986,14.7742926 C8.51543531,15.1798874 9.25499343,15.3946862 10.0098507,15.3946862 C12.218423,15.3946862 14.0076689,13.6051049 14.0076689,11.3946862 L15.5073398,11.3946862 L13.5084599,9.39550381 Z" id="Fill-2"></path>
                        </g>
                    </g>
                </g>
            </g>
        </g>
    </g>
</svg>