<?xml version="1.0" encoding="UTF-8"?><svg version="1.1" width="24px" height="24px" viewBox="0 0 24.0 24.0" xmlns="http://www.w3.org/2000/svg" xmlns:xlink="http://www.w3.org/1999/xlink"><defs><clipPath id="i0"><path d="M1440,0 L1440,900 L0,900 L0,0 L1440,0 Z"></path></clipPath><clipPath id="i1"><path d="M24,0 L24,24 L0,24 L0,0 L24,0 Z"></path></clipPath><clipPath id="i2"><path d="M12.00048,0 C18.62736,0 24,5.37204 24,12.0006 C24,18.62748 18.62736,24 12.00048,24 C5.37192,24 0,18.62748 0,12.0006 C0,5.37204 5.37192,0 12.00048,0 Z M18.9526922,7.64386775 C18.5649765,7.25625742 17.9368495,7.25625742 17.5492391,7.64386775 L10.312862,14.8807721 L6.4500445,11.01806 C6.06243416,10.6299225 5.43430718,10.6299225 5.04669684,11.01806 C4.65898105,11.4052486 4.65898105,12.0333756 5.04669684,12.4209859 L9.61081912,16.9856354 C9.80420252,17.179546 10.0587431,17.2759214 10.312862,17.2759214 C10.5668754,17.2759214 10.8204671,17.179546 11.0142722,16.9856354 L18.9526922,9.04732086 C19.3403026,8.65971052 19.3403026,8.03147809 18.9526922,7.64386775 Z"></path></clipPath></defs><g transform="translate(-690.0 -443.0)"><g clip-path="url(#i0)"><g transform="translate(275.0 80.0)"><g transform="translate(20.0 221.0)"><g transform="translate(395.0 142.0)"><g clip-path="url(#i1)"><g clip-path="url(#i2)"><polygon points="0,0 24,0 24,24 0,24 0,0" stroke="none" fill="#3B7CFF"></polygon></g></g></g></g></g></g></g></svg>