<?xml version="1.0" encoding="UTF-8"?>
<svg width="18px" height="18px" viewBox="0 0 18 18" version="1.1" xmlns="http://www.w3.org/2000/svg" xmlns:xlink="http://www.w3.org/1999/xlink">
    <title>上传</title>
    <g id="05APP开发（V1.0.2)" stroke="none" stroke-width="1" fill="none" fill-rule="evenodd">
        <g id="界面配置-应用图标" transform="translate(-530.000000, -551.000000)" fill="#3B7CFF">
            <g id="内容" transform="translate(275.000000, 80.000000)">
                <g id="编组-5" transform="translate(240.000000, 462.000000)">
                    <g id="上传" transform="translate(15.000000, 9.000000)">
                        <path d="M15.5,11 C15.1505627,11.0106554 15.0421786,11.3244034 15.0141096,11.801589 C14.9907687,12.199734 15.0081806,12.6005032 15,13 C14.9915192,13.41381 14.4695835,13.9255714 14.102209,13.9815519 C13.9047499,14.0116096 13.7009865,13.9999205 13.5,14 C11.1614117,14.0009542 7.82282335,14.0007157 5.48423503,14.0004771 C5.33338257,14.0004771 5.18162951,14.0092241 5.03182776,13.9952289 C4.50684621,13.9464051 4.0269433,13.5592479 4,13 C3.98206282,12.6279368 4.0111826,12.2528519 3.98596547,11.8816633 C3.95451911,11.4203812 3.84148193,11.0006361 3.5,11 C3.15919353,10.9993639 3.04692455,11.2845948 3.01720436,11.7520793 C2.99026107,12.1764652 3.00144366,12.6042703 3.00774794,13.0303261 C3.02778655,14.3728231 3.60327741,14.9879719 4.85790453,14.9948104 C6.21572674,15.0022055 7.573624,14.9965598 8.93152125,14.9960032 C10.3899868,14.9954465 12.8486025,15.0080103 14.3069179,14.9912321 C15.3090736,14.979702 15.913384,14.3770375 15.9775526,13.3339246 C16.0101247,12.8033031 16.0049462,12.2675129 15.9768021,11.7363348 C15.9520353,11.26726 15.8471858,10.9893446 15.5,11 Z" id="Fill-1"></path>
                        <path d="M6.35317924,7.79677573 C7.16368995,6.92590375 7.97251897,6.05337557 8.78202066,5.18135145 C8.837853,5.20468224 8.89361807,5.22801302 8.94945042,5.25134381 L8.94945042,5.9506193 C8.94945042,7.61769034 8.94891227,9.28476139 8.95019036,10.9518324 C8.9503249,11.1448155 8.94063832,11.341471 8.97077433,11.5299895 C9.0186018,11.8296172 9.20547198,11.9917806 9.48967878,11.9997015 C9.77287656,12.0076225 9.97172042,11.8577726 10.0338759,11.5627534 C10.0729586,11.3775473 10.065021,11.1790196 10.0651555,10.9864686 C10.0667699,9.00018341 10.0662991,7.01382624 10.0658282,5.02754109 C10.9994391,6.02838859 12.4492638,7.58017387 12.8284528,7.98212586 C12.9398484,8.10014795 13.0514459,8.23113159 13.1869234,8.30731668 C13.5771444,8.52679889 14.0023446,8.25078993 14,7.67227286 C13.9307043,7.56555612 13.8284572,7.35385084 13.6801988,7.18967124 C13.1483789,6.60049689 10.6442647,3.93149822 10.101682,3.3534132 C10.0221041,3.26865908 9.94420786,3.17555197 9.84956195,3.1147047 C9.61345168,2.96291058 9.37794682,2.95246933 9.1756723,3.13961968 C9.14708345,3.15099703 9.11896548,3.16215837 9.09192379,3.1724556 C8.99525984,3.20910797 8.92631026,3.33145058 8.84653056,3.41685278 C7.69739333,4.64683163 6.5482561,5.87681049 5.39999335,7.10772546 C5.30447296,7.21012168 5.20195671,7.30970957 5.12668395,7.4280197 C4.95494905,7.69812395 4.94627149,7.98313398 5.1722243,8.21730594 C5.39743717,8.45082982 5.66684504,8.44082062 5.91075838,8.24394912 C6.07173042,8.11404561 6.20996592,7.95073011 6.35317924,7.79677573 Z" id="Fill-3"></path>
                    </g>
                </g>
            </g>
        </g>
    </g>
</svg>