<?xml version="1.0" encoding="UTF-8"?>
<svg width="36px" height="36px" viewBox="0 0 36 36" version="1.1" xmlns="http://www.w3.org/2000/svg" xmlns:xlink="http://www.w3.org/1999/xlink">
    <title>失败    icon</title>
    <g id="06APP开发-多语言（V1.0.2)" stroke="none" stroke-width="1" fill="none" fill-rule="evenodd">
        <g id="上传文件-文件内容不对" transform="translate(-520.000000, -365.000000)">
            <g id="弹窗备份-3" transform="translate(430.000000, 260.000000)">
                <g id="编组-8" transform="translate(90.000000, 101.000000)">
                    <g id="失败----icon" transform="translate(0.000000, 4.000000)">
                        <polygon id="Clip-2" points="0 0 35.9999121 0 35.9999121 36 0 36"></polygon>
                        <path d="M0,18 C0,27.9413086 8.05869141,36 18,36 C27.9413086,36 36,27.9413086 36,18 C36,8.05869141 27.9413086,0 18,0 C8.05869141,0 0,8.05869141 0,18 Z" id="路径" fill="#FF8E35"></path>
                        <path d="M19.4999597,23.9999414 C19.4999597,24.6213281 19.2427265,25.4999377 17.9999597,25.4999377 C16.7571857,25.4999377 16.4999597,24.6213281 16.4999597,23.9999414 C16.4999597,20.7082959 16.4999597,18.208302 16.4999597,16.4999597 C16.4999597,14.520802 16.4999597,11.5208105 16.4999597,7.49998535 C16.4999597,6.87859497 16.7571857,5.99998535 17.9999597,5.99998535 C19.2427265,5.99998535 19.4999597,6.87859497 19.4999597,7.49998535 C19.4999597,11.5208105 19.4999597,14.520802 19.4999597,16.4999597 C19.4999597,18.208302 19.4999597,20.7082959 19.4999597,23.9999414 Z" id="路径" fill="#FFFFFF"></path>
                        <circle id="椭圆形" fill="#FFFFFF" cx="17.9999561" cy="28.4999304" r="1.49999634"></circle>
                    </g>
                </g>
            </g>
        </g>
    </g>
</svg>