<?xml version="1.0" encoding="UTF-8"?>
<svg width="18px" height="18px" viewBox="0 0 18 18" version="1.1" xmlns="http://www.w3.org/2000/svg" xmlns:xlink="http://www.w3.org/1999/xlink">
    <title>感叹</title>
    <defs>
        <polygon id="path-1" points="0 0 18 0 18 18 0 18"></polygon>
    </defs>
    <g id="01产品开发-产品" stroke="none" stroke-width="1" fill="none" fill-rule="evenodd">
        <g id="确定产品开发完成（有未完成）" transform="translate(-415.000000, -600.000000)">
            <g id="弹窗备份-3" transform="translate(380.000000, 165.000000)">
                <g id="表格" transform="translate(19.000000, 236.000000)">
                    <g id="编组-3" transform="translate(16.000000, 194.000000)">
                        <g id="感叹" transform="translate(0.000000, 5.000000)">
                            <mask id="mask-2" fill="white">
                                <use xlink:href="#path-1"></use>
                            </mask>
                            <g id="Clip-2"></g>
                            <path d="M9,12.023451 C9.62127,12.023451 10.125,12.5271818 10.125,13.1484527 C10.125,13.7697237 9.62127,14.2734544 9,14.2734544 C8.37873,14.2734544 7.875,13.7697237 7.875,13.1484527 C7.875,12.5271818 8.37873,12.023451 9,12.023451 M9.77346,4.49997975 L9.77346,10.4676187 C9.77346,10.8948493 9.42714,11.2410799 9,11.2410799 C8.57286,11.2410799 8.22654,10.8948493 8.22654,10.4676187 L8.22654,4.49997975 C8.22654,4.07283911 8.57286,3.72651859 9,3.72651859 C9.42714,3.72651859 9.77346,4.07283911 9.77346,4.49997975 M9,-2.70000405e-05 C4.02939,-2.70000405e-05 0,4.02945904 0,8.9999865 C0,13.970604 4.02939,18 9,18 C13.97061,18 18,13.970604 18,8.9999865 C18,4.02945904 13.97061,-2.70000405e-05 9,-2.70000405e-05" id="Fill-1" fill="#FAA059" mask="url(#mask-2)"></path>
                        </g>
                    </g>
                </g>
            </g>
        </g>
    </g>
</svg>