<?xml version="1.0" encoding="UTF-8"?>
<svg width="36px" height="36px" viewBox="0 0 36 36" version="1.1" xmlns="http://www.w3.org/2000/svg" xmlns:xlink="http://www.w3.org/1999/xlink">
    <title>感叹</title>
    <defs>
        <polygon id="path-1" points="0 0 36 0 36 36 0 36"></polygon>
    </defs>
    <g id="05APP开发（V1.0.2)" stroke="none" stroke-width="1" fill="none" fill-rule="evenodd">
        <g id="界面配置-主题色-自定义（弹窗确定）" transform="translate(-702.000000, -376.000000)">
            <g id="弹窗备份-3" transform="translate(550.000000, 340.000000)">
                <g id="感叹" transform="translate(152.000000, 36.000000)">
                    <mask id="mask-2" fill="white">
                        <use xlink:href="#path-1"></use>
                    </mask>
                    <g id="Clip-2"></g>
                    <path d="M18,24.0469021 C19.24254,24.0469021 20.25,25.0543636 20.25,26.2969054 C20.25,27.5394473 19.24254,28.5469021 18,28.5469021 C16.75746,28.5469021 15.75,27.5394473 15.75,26.2969054 C15.75,25.0543636 16.75746,24.0469021 18,24.0469021 M19.54692,8.9999595 L19.54692,20.9352374 C19.54692,21.7896987 18.85428,22.4821597 18,22.4821597 C17.14572,22.4821597 16.45308,21.7896987 16.45308,20.9352374 L16.45308,8.9999595 C16.45308,8.14567822 17.14572,7.45303718 18,7.45303718 C18.85428,7.45303718 19.54692,8.14567822 19.54692,8.9999595 M18,-5.4000081e-05 C8.05878,-5.4000081e-05 0,8.05891809 0,17.999973 C0,27.9412079 8.05878,36 18,36 C27.94122,36 36,27.9412079 36,17.999973 C36,8.05891809 27.94122,-5.4000081e-05 18,-5.4000081e-05" id="Fill-1" fill="#FF8E35" mask="url(#mask-2)"></path>
                </g>
            </g>
        </g>
    </g>
</svg>