<?xml version="1.0" encoding="UTF-8"?>
<svg width="200px" height="200px" viewBox="0 0 200 200" version="1.1" xmlns="http://www.w3.org/2000/svg" xmlns:xlink="http://www.w3.org/1999/xlink">
    <title>200*200</title>
    <defs>
        <radialGradient cx="50%" cy="50%" fx="50%" fy="50%" r="32.4200622%" gradientTransform="translate(0.500000,0.500000),scale(0.725000,1.000000),rotate(90.000000),translate(-0.500000,-0.500000)" id="radialGradient-1">
            <stop stop-color="#FFE700" offset="0%"></stop>
            <stop stop-color="#FFA400" offset="43.5369318%"></stop>
            <stop stop-color="#F99030" offset="55.4086538%"></stop>
            <stop stop-color="#F25F2A" offset="100%"></stop>
        </radialGradient>
    </defs>
    <g id="200*200" stroke="none" stroke-width="1" fill="none" fill-rule="evenodd">
        <g id="编组" transform="translate(6.000000, 38.000000)">
            <g fill="#3B7CFF">
                <polygon id="Fill-5" points="185.137176 94.5972838 190 91.2807011 186.252481 86.1441638 181.389657 89.4615109"></polygon>
                <polygon id="Fill-7" points="177.640762 84.3249736 182.504351 81.0076265 178.756832 75.8718536 173.893243 79.1884363"></polygon>
                <polygon id="Fill-9" points="176.525456 92.7777877 181.38828 89.4612051 177.640762 84.3246678 172.777937 87.6420148"></polygon>
                <polygon id="Fill-11" points="175.409385 101.230984 180.272975 97.9136371 176.525456 92.7778642 171.662632 96.0952112"></polygon>
                <polygon id="Fill-13" points="167.913736 90.9582917 172.777325 87.6409447 169.029807 82.5051718 164.166218 85.8217544"></polygon>
                <polygon id="Fill-15" points="166.798431 99.4118703 171.661255 96.0952876 167.913736 90.9587503 163.050912 94.2760973"></polygon>
                <path d="M23.1484454,66.8942259 C23.5309233,94.1461552 50.4963814,112.493989 86.5456901,112.19665 C114.162126,111.968869 139.429382,103.058659 159.410793,88.9392962 L163.050453,94.2760973 L158.235821,97.5590479 L161.984105,102.694821 L166.846929,99.3782382 L166.811741,99.3293188 L171.025118,104.990975 C149.897802,116.386903 116.785924,123.997692 86.1792762,124.041451 C63.1931183,124.074129 42.0573886,119.8426 26.0445682,109.741508 C11.1218097,100.329109 -2.19071665,84.1176776 0.302274418,63.2596672 C0.995324404,57.4619536 3.20528181,51.7337973 7.38347058,46.3954674 C14.6031237,37.1711025 28.6660718,30.9071259 44.8288236,30.9071259 C44.8272937,30.9140051 44.8257638,30.9208844 44.8249988,30.9277637 C44.8272937,30.9208844 44.8295886,30.9140051 44.8311185,30.9071259 C49.9081304,13.0660668 66.3363219,0 85.819747,0 C105.352129,0 121.813979,13.1333309 126.845858,31.0439473 C132.840817,30.4416272 142.620013,32.3265529 150.822634,36.8882872 C171.314271,48.2826863 168.957442,72.717928 150.329237,82.6852563 C144.384766,85.8657819 137.138339,87.6192367 129.624943,87.7468858 C116.138771,87.9761955 101.78361,82.9718934 92.5192302,71.5973679 C84.2584721,61.4572929 82.9603421,62.2270092 74.9283058,71.4200351 C65.503285,82.2067634 53.5944525,84.0718156 41.4500137,83.5077138 C36.8052019,83.292927 37.6481832,80.880589 41.1111383,79.4535183 C58.1841875,72.4160035 69.6332815,57.251753 76.6976486,41.7809919 C80.6218721,33.1864643 88.3379816,32.9739706 92.2905084,41.965204 C96.1650097,50.7783402 101.167821,60.0049982 107.240805,66.6595657 C135.686453,97.8258115 163.520136,51.1253622 128.047604,36.8791148 C125.146891,35.7142215 122.008278,34.8566033 118.703668,34.3582369 C117.98461,33.2789525 117.215829,32.2371221 116.398091,31.2342744 C99.8000798,12.3231033 68.0207546,13.5781918 53.2303336,33.9225484 C37.8784349,34.7090807 22.9044245,49.4361141 23.1484454,66.8942259" id="Fill-17"></path>
            </g>
            <path d="M83.5592808,81.3115115 C81.5615097,88.6620653 77.5576244,90.8647087 67.9570978,92.2821578 L67.9570978,92.2821578 C67.3564012,92.3696644 66.741294,92.5060485 66.096607,92.6164172 L66.096607,92.6164172 C65.410205,92.7330927 65.0013977,92.8647467 64.9740933,93.0019192 L64.9740933,93.0019192 L64.9740933,93.0302997 L64.9740933,93.0310881 L64.9740933,93.0326648 L64.9740933,93.0602569 C65.0013977,93.1982178 65.410205,93.3290835 66.096607,93.4465473 L66.096607,93.4465473 C66.741294,93.5561276 67.3564012,93.6925118 67.9570978,93.7808067 L67.9570978,93.7808067 C77.5576244,95.1982558 81.5615097,97.4001109 83.5592808,104.750665 L83.5592808,104.750665 C83.6571215,105.114093 83.9908419,107.23869 84.6628332,107.305699 L84.6628332,107.305699 C85.335583,107.23869 85.6693033,105.114093 85.7656271,104.750665 L85.7656271,104.750665 C87.7649152,97.4001109 91.768042,95.1982558 101.369327,93.7808067 L101.369327,93.7808067 C101.969265,93.6925118 102.585131,93.5561276 103.229059,93.4465473 L103.229059,93.4465473 C103.915461,93.3290835 104.324269,93.1982178 104.352332,93.0602569 L104.352332,93.0602569 L104.352332,93.0326648 L104.352332,93.0310881 L104.352332,93.0302997 L104.352332,93.0019192 C104.324269,92.8647467 103.915461,92.7330927 103.229059,92.6164172 L103.229059,92.6164172 C102.585131,92.5060485 101.969265,92.3696644 101.369327,92.2821578 L101.369327,92.2821578 C91.768042,90.8647087 87.7649152,88.6620653 85.7656271,81.3115115 L85.7656271,81.3115115 C85.6693033,80.9472949 85.335583,78.8242746 84.6628332,78.7564767 L84.6628332,78.7564767 C83.9908419,78.8242746 83.6571215,80.9472949 83.5592808,81.3115115" id="Fill-25" fill="url(#radialGradient-1)"></path>
        </g>
    </g>
</svg>